<svg width="80" height="80" viewBox="0 0 80 80" fill="none" xmlns="http://www.w3.org/2000/svg">
<path d="M39.8216 1.60718L47.771 10.3323L59.018 6.75085L61.5399 18.2818L73.0708 20.8036L69.4893 32.0506L78.2144 40L69.4893 47.9495L73.0708 59.1965L61.5399 61.7183L59.018 73.2492L47.771 69.6678L39.8216 78.3929L31.8721 69.6678L20.6251 73.2492L18.1033 61.7183L6.57238 59.1965L10.1538 47.9495L1.42871 40L10.1538 32.0506L6.57238 20.8036L18.1033 18.2818L20.6251 6.75085L31.8721 10.3323L39.8216 1.60718Z" fill="#FF0420"/>
<path fill-rule="evenodd" clip-rule="evenodd" d="M35.5379 39.2155C36.3221 39.2155 36.9577 39.8512 36.9577 40.6355C36.9577 42.2041 38.229 43.4756 39.7973 43.4756C41.3655 43.4756 42.6369 42.2041 42.6369 40.6355C42.6369 39.8512 43.2725 39.2155 44.0566 39.2155C44.8408 39.2155 45.4764 39.8512 45.4764 40.6355C45.4764 43.7726 42.9338 46.3158 39.7973 46.3158C36.6608 46.3158 34.1182 43.7726 34.1182 40.6355C34.1182 39.8512 34.7538 39.2155 35.5379 39.2155Z" fill="white"/>
<path d="M26.3101 27.6775L27.131 29.7592C27.8561 31.5982 29.3089 33.0529 31.1428 33.7763L33.2315 34.6003L31.1428 35.4242C29.3089 36.1477 27.8561 37.6023 27.131 39.4413L26.3101 41.5231L25.4892 39.4414C24.7641 37.6023 23.3113 36.1477 21.4774 35.4242L19.3887 34.6003L21.4774 33.7763C23.3113 33.0529 24.7641 31.5982 25.4892 29.7592L26.3101 27.6775Z" fill="white"/>
<path d="M53.6412 27.6775L54.462 29.7592C55.1872 31.5982 56.6399 33.0529 58.4738 33.7763L60.5626 34.6003L58.4738 35.4242C56.6399 36.1477 55.1872 37.6023 54.462 39.4413L53.6412 41.5231L52.8203 39.4414C52.0951 37.6023 50.6424 36.1477 48.8085 35.4242L46.7197 34.6003L48.8085 33.7763C50.6424 33.0529 52.0951 31.5982 52.8203 29.7592L53.6412 27.6775Z" fill="white"/>
</svg>
