<?xml version="1.0" encoding="utf-8"?>
<!-- Generator: Adobe Illustrator 28.3.0, SVG Export Plug-In . SVG Version: 6.00 Build 0)  -->
<svg version="1.1" id="Layer_1" xmlns="http://www.w3.org/2000/svg" xmlns:xlink="http://www.w3.org/1999/xlink" x="0px" y="0px"
	 viewBox="0 0 1802 242" style="enable-background:new 0 0 1802 242;" xml:space="preserve">
<style type="text/css">
	.st0{clip-path:url(#SVGID_00000168826133813509760520000004405868587546848641_);}
	.st1{fill:#05060B;}
</style>
<g>
	<defs>
		<rect id="SVGID_1_" x="0.1" y="0.1" width="1801.8" height="241.7"/>
	</defs>
	<clipPath id="SVGID_00000118375504389505147450000012701530217381900713_">
		<use xlink:href="#SVGID_1_"  style="overflow:visible;"/>
	</clipPath>
	<g style="clip-path:url(#SVGID_00000118375504389505147450000012701530217381900713_);">
		<path class="st1" d="M1091.4,66.4c-9.1-3.7-20.4-5.5-33.9-5.5c-4.3,0-9.1,0-14.3,0.1c-5.2,0.1-10.2,0.3-15,0.6
			c-4.8,0.3-9,0.6-12.7,1v31c4.6-0.3,10-0.6,16-1c6-0.3,11.8-0.6,17.5-0.7c5.7-0.2,10.4-0.2,14-0.2c7.2,0,12.5,1.8,16,5.3
			c3.4,3.5,5.2,8.8,5.2,15.8v0.7h-25c-11.5,0-21.7,1.5-30.5,4.4c-8.8,3-15.7,7.5-20.5,13.6c-4.9,6.1-7.3,14-7.3,23.8
			c0,8.8,2,16.3,5.9,22.6c3.9,6.2,9.5,11,16.6,14.4s15.4,5,24.9,5c9.1,0,16.8-1.6,23.2-4.9c6.3-3.3,11.3-8.1,14.9-14.4
			c1.6-2.8,2.9-5.9,4-9.3v25.3h29.1v-80.6c0-12.2-2.4-22.1-7.1-29.8C1107.5,75.8,1100.6,70.1,1091.4,66.4z M1071.2,169.4
			c-3.6,1.6-7.7,2.4-12.1,2.4c-7.1,0-12.5-1.7-16.3-5.2c-3.8-3.4-5.8-8-5.8-13.6c0-5.6,1.9-10.2,5.8-13.7c3.8-3.5,9.3-5.3,16.3-5.3
			h25.2v11.3c-0.3,6.7-1.7,12-4.1,15.8C1077.8,165.1,1074.8,167.8,1071.2,169.4z M575,67.6c-9.6-6.2-21.5-9.4-35.5-9.4
			c-10.7,0-20.3,1.9-28.6,5.6c-8.3,3.8-15.3,8.8-20.9,15.2c-5.6,6.4-9.8,13.6-12.7,21.7c-2.9,8.1-4.3,16.4-4.3,25.1v4.8
			c0,8.5,1.4,16.7,4.3,24.7c2.9,8,7.2,15.2,12.8,21.7c5.7,6.5,12.8,11.6,21.3,15.5c8.5,3.8,18.3,5.8,29.5,5.8
			c10.9,0,20.6-1.9,29.1-5.6c8.5-3.8,15.5-9,21-15.8c5.5-6.8,9.2-14.7,11.2-23.6h-33.6c-1.4,4.3-4.5,8-9.2,10.9
			c-4.7,3-10.8,4.4-18.4,4.4c-7.8,0-14.2-1.7-19.2-5c-5-3.4-8.6-8-11-14c-1.1-2.7-1.9-5.6-2.5-8.6h96.4v-16
			c0-11.7-2.5-22.6-7.6-32.8C591.9,82.1,584.6,73.9,575,67.6z M521.8,92.9c4.9-3.1,10.8-4.7,17.6-4.7c6.9,0,12.6,1.5,17.2,4.6
			c4.6,3,8,7.4,10.3,13.1c1.6,4,2.7,8.6,3.2,13.7h-62.6c0.6-4.8,1.6-9.2,3.2-13C513.2,100.6,516.9,96.1,521.8,92.9z M136.2,115.3
			c5.4,7.4,8.2,16.5,8.2,27.2c0,11.2-2.9,21-8.8,29.4c-5.8,8.4-14.1,14.9-24.7,19.6c-10.6,4.6-23.3,7-38.1,7
			c-15.7,0-28.9-2.5-39.7-7.4c-10.8-5-19-11.8-24.6-20.6c-5.6-8.8-8.4-18.8-8.4-30h36.5c0,4.6,1.2,9,3.7,13c2.5,4,6.4,7.2,11.6,9.7
			c5.3,2.5,12.2,3.7,20.9,3.7c7.7,0,14.1-1,19.3-3.1c5.2-2.1,9.1-5,11.8-8.6c2.6-3.7,4-7.8,4-12.5c0-5.8-2.5-10.4-7.4-13.8
			c-5-3.4-12.9-5.6-23.8-6.6l-14.2-1.2c-17.1-1.4-30.8-6.8-41.1-16.1c-10.2-9.3-15.4-21.6-15.4-37C6.1,56.7,8.7,47,14,38.9
			c5.3-8.1,12.7-14.3,22.3-18.7c9.6-4.4,20.9-6.6,33.9-6.6c13.6,0,25.3,2.3,35.1,7c9.8,4.6,17.3,11.2,22.6,19.8
			c5.3,8.6,7.9,18.5,7.9,29.9H99.3c0-4.5-1.1-8.6-3.2-12.4c-2.2-3.8-5.4-6.8-9.7-9.1c-4.3-2.3-9.7-3.5-16.1-3.5
			c-6.1,0-11.2,1-15.2,3c-4.1,2-7.2,4.8-9.2,8.3c-2.1,3.5-3.1,7.3-3.1,11.3c0,5.1,1.8,9.6,5.5,13.4c3.7,3.8,9.7,6.1,18,6.7l14.2,1.2
			c12.6,1.1,23.8,3.9,33.4,8.3C123.3,101.9,130.8,107.8,136.2,115.3z M247.6,62.8h36.7v131.1h-29.1v-30.5c-0.7,2.9-1.5,5.6-2.5,8.2
			c-3.4,8.8-8.5,15.4-15.2,19.8c-6.7,4.4-15,6.6-25,6.6h-1.7c-15,0-26.7-4.9-34.9-14.8c-8.2-9.8-12.4-24.7-12.4-44.5V62.8h36.5v78.2
			c0,7.4,2.1,13.2,6.4,17.6c4.2,4.4,9.9,6.6,16.9,6.6c7.2,0,13-2.3,17.5-6.8c4.5-4.6,6.7-10.8,6.7-18.6V62.8z M443.3,78.1
			c-5.4-6-11.8-10.7-19.2-14.2c-7.4-3.4-15.7-5.2-24.9-5.2c-10.2,0-19.4,2.3-27.6,6.8c-8.2,4.6-14.6,11.3-19.5,20.3
			c-1.6,3-2.9,6.2-4.1,9.7V62.8h-46.8v27.1h17.8v151.9h36.5v-64.7c4.5,6.5,10.1,11.5,16.8,14.9c8,4.1,17,6.1,26.9,6.1
			c9.4,0,17.9-1.7,25.5-5.2c7.5-3.4,13.9-8.2,19.1-14.3c5.2-6.1,9.2-13.2,11.9-21.4c2.7-8.2,4.1-17,4.1-26.6v-5.3
			c0-9.4-1.4-18.2-4.2-26.3C452.8,91.1,448.7,84.1,443.3,78.1z M419,148.6c-2.9,6-6.8,10.7-11.9,14s-10.9,5-17.6,5
			c-5.8,0-11.3-1.4-16.6-4.1c-5.3-2.7-9.6-6.6-13.1-11.6c-3.4-5-5.2-11.1-5.2-18.1v-9.1c0-7.5,1.6-13.9,4.9-19.2
			c3.3-5.3,7.5-9.3,12.7-12c5.2-2.7,10.9-4.1,17.2-4.1c6.7,0,12.6,1.6,17.6,4.8c5,3.2,9,7.7,11.9,13.6c2.9,5.8,4.3,12.6,4.3,20.3
			S421.8,142.6,419,148.6z M810.5,144.4H846c-0.5,10.7-3.5,20.1-9.1,28.2c-5.6,8.1-13,14.4-22.2,19c-9.2,4.6-19.7,6.8-31.3,6.8
			c-11.4,0-21.2-1.9-29.5-5.6c-8.3-3.8-15.3-8.8-20.9-15.2c-5.6-6.4-9.8-13.6-12.5-21.7c-2.7-8.1-4.1-16.4-4.1-24.8v-4.6
			c0-9,1.4-17.5,4.3-25.7c2.9-8.2,7.1-15.4,12.7-21.7c5.6-6.3,12.6-11.4,20.9-15.1c8.3-3.8,17.9-5.6,28.8-5.6
			c11.7,0,22.1,2.2,31.1,6.7c9,4.5,16.3,10.8,21.7,18.8c5.4,8.1,8.5,17.4,9.1,28h-35.8c-0.6-6.2-3.2-11.5-7.6-15.7
			c-4.4-4.2-10.6-6.4-18.6-6.4c-6.7,0-12.3,1.6-16.8,4.9c-4.5,3.3-7.8,7.8-10,13.7c-2.2,5.8-3.2,12.6-3.2,20.3c0,7.4,1,14,3,19.8
			c2,5.8,5.2,10.4,9.7,13.8c4.5,3.4,10.3,5,17.5,5c5.4,0,10-1,13.8-3c3.8-2,6.8-4.7,9.1-8C808.6,152.8,810,148.9,810.5,144.4z
			 M973.8,74.2c7.7,10.3,11.5,25.3,11.5,45v74.6h-36.7v-77.3c0-7.7-2.2-13.8-6.6-18.2c-4.4-4.5-10.2-6.7-17.4-6.7
			c-7.5,0-13.6,2.4-18.2,7.3c-4.6,4.9-7,11.3-7,19.3v75.6h-36.5V18.6h36.5v66.2c3.3-8.3,8.1-14.7,14.3-19.1
			c6.6-4.7,14.9-7.1,24.9-7.1h1.7C954.9,58.7,966.1,63.9,973.8,74.2z M1186.9,62.8v131.1h-36.5V89.9h-17.8V62.8
			C1132.6,62.8,1186.9,62.8,1186.9,62.8z M706.8,61.1h5v31.7h-9.6c-10.7,0-19.1,2.9-25,8.6c-5.9,5.8-8.9,14.2-8.9,25.2v67.2h-36.5
			V89.9h-17.8V62.8h46.8v43c1.5-12.4,5.2-22.3,11.2-29.8C680,66.1,691.6,61.1,706.8,61.1z M1345.2,119v74.9h-36.7v-77.3
			c0-7.5-2.1-13.6-6.4-18.1c-4.2-4.6-10.1-6.8-17.6-6.8c-7.5,0-13.6,2.3-18.2,7c-4.6,4.6-7,10.9-7,18.7v76.6h-36.5V89.9H1205V62.8
			h46.8v32.4c0.8-3.4,1.7-6.6,2.9-9.6c3.5-9,8.8-15.7,15.7-20.2c7-4.5,15.6-6.7,25.8-6.7h1.7c15.4,0,27.1,5,35.2,15
			C1341.2,83.7,1345.2,98.8,1345.2,119z M1195.3,26.6v0.5c-11.8,5.9-20.6,14.7-26.4,26.4h-0.5c-5.9-11.8-14.7-20.6-26.4-26.4v-0.5
			c11.8-5.9,20.6-14.7,26.4-26.4h0.5C1174.7,11.9,1183.6,20.7,1195.3,26.6z M1546.8,81.3c-5.9-6-13.3-10.7-22.2-14.2
			c-8.9-3.5-19.2-5.2-31.1-5.2h-48v132.7h48c11.9,0,22.2-1.9,31.1-5.6c8.9-3.7,16.3-8.6,22.2-14.8c5.9-6.2,10.4-13.1,13.4-20.8
			c3-7.7,4.5-15.5,4.5-23.4v-4c0-8.4-1.5-16.4-4.5-24.1C1557.2,94.1,1552.8,87.3,1546.8,81.3z M1533.9,144.7
			c-1.8,5-4.6,9.3-8.2,12.9c-3.6,3.6-8,6.4-13.1,8.3c-5.2,2-11,3-17.4,3h-22.1V87.4h22.1c6.5,0,12.3,0.9,17.4,2.8
			c5.2,1.9,9.5,4.6,13.1,8.1c3.6,3.5,6.3,7.8,8.2,12.7c1.9,5,2.8,10.6,2.8,17C1536.7,134.1,1535.8,139.6,1533.9,144.7z
			 M1613.1,138.7h50.5v-23h-50.5v-30h53.5v-23h-80.3v131.1h81.8v-23h-55V138.7z M1774.2,62.8l-29.6,108.4h-6.4l-32-108.4h-28.4
			l40.8,131.1h45.1l38.1-131.1H1774.2z"/>
	</g>
</g>
</svg>
