<svg width="4342" height="4342" viewBox="0 0 4342 4342" fill="none" xmlns="http://www.w3.org/2000/svg">
<path d="M2171 4342C3370.01 4342 4342 3370.01 4342 2171C4342 971.99 3370.01 0 2171 0C971.99 0 0 971.99 0 2171C0 3370.01 971.99 4342 2171 4342Z" fill="#FF0420"/>
<path d="M3079.24 1398.65H2283.54V2883.09H2284.36V3211.29H2778.05V2883.09H3079.19C3488.98 2883.09 3821.19 2550.87 3821.19 2141.09V2140.7C3821.19 1730.91 3488.98 1398.7 3079.19 1398.7L3079.24 1398.65ZM3294.55 2143.35C3175.73 2202.6 3086.67 2291.61 3027.43 2410.48H3022.41C2963.16 2291.66 2874.15 2202.6 2755.28 2143.35V2138.34C2874.1 2079.09 2963.16 1990.08 3022.41 1871.21H3027.43C3086.67 1990.03 3175.68 2079.09 3294.55 2138.34V2143.35Z" fill="white"/>
<path d="M1307.86 1358.13C875.588 1358.13 525.14 1708.58 525.14 2140.85C525.14 2573.17 875.588 2923.62 1307.86 2923.62C1740.18 2923.62 2090.58 2573.17 2090.58 2140.9C2090.58 1708.58 1740.13 1358.13 1307.86 1358.13ZM1577.5 2143.36C1458.67 2202.6 1369.61 2291.61 1310.37 2410.49H1305.35C1246.11 2291.66 1157.09 2202.6 1038.22 2143.36V2138.34C1157.05 2079.1 1246.11 1990.09 1305.35 1871.21H1310.37C1369.61 1990.04 1458.62 2079.1 1577.5 2138.34V2143.36Z" fill="white"/>
</svg>
