<svg width="961" height="961" viewBox="0 0 961 961" fill="none" xmlns="http://www.w3.org/2000/svg">
<rect x="0.578125" y="0.138672" width="959.844" height="960" rx="479.922" fill="white"/>
<path d="M480.539 240.117L480.539 0.216797C215.441 0.216797 0.578134 215.079 0.578145 480.178C0.578156 745.276 215.441 960.139 480.539 960.139L480.539 940.141C287.275 940.141 130.568 783.433 130.568 590.169C130.568 396.905 287.275 240.197 480.539 240.197L480.539 240.117Z" fill="#FF0420"/>
<path d="M480.461 0.218744L480.461 20.2171C673.725 20.2171 830.433 176.924 830.433 370.189C830.433 563.453 673.725 720.16 480.461 720.16L480.461 960.061C745.559 960.061 960.422 745.198 960.422 480.1C960.422 215.001 745.559 0.138672 480.461 0.138672L480.461 0.218744Z" fill="#FF0420"/>
<path d="M645.808 481.697C572.934 518.014 518.299 572.65 481.982 645.524H478.942C442.625 572.65 387.989 518.014 315.115 481.697L315.115 478.658C387.989 442.341 442.625 387.705 478.942 314.831H481.982C518.299 387.705 572.934 442.341 645.808 478.658L645.808 481.697Z" fill="#FF0420"/>
</svg>
