<?xml version="1.0" encoding="utf-8"?>
<!-- Generator: Adobe Illustrator 28.3.0, SVG Export Plug-In . SVG Version: 6.00 Build 0)  -->
<svg version="1.1" id="Layer_1" xmlns="http://www.w3.org/2000/svg" xmlns:xlink="http://www.w3.org/1999/xlink" x="0px" y="0px"
	 viewBox="0 0 142 24" style="enable-background:new 0 0 142 24;" xml:space="preserve">
<style type="text/css">
	.st0{fill:#FF0420;}
	.st1{fill:#FFFFFF;}
</style>
<g>
	<g>
		<path class="st0" d="M12.3,24c6.6,0,12-5.4,12-12s-5.4-12-12-12s-12,5.4-12,12S5.7,24,12.3,24z"/>
		<path class="st1" d="M17.3,7.7h-4.4v8.2h0v1.8h2.7v-1.8h1.7c2.3,0,4.1-1.8,4.1-4.1v0C21.4,9.6,19.6,7.7,17.3,7.7L17.3,7.7z
			 M18.5,11.8c-0.7,0.3-1.1,0.8-1.5,1.5h0c-0.3-0.7-0.8-1.1-1.5-1.5v0c0.7-0.3,1.1-0.8,1.5-1.5h0C17.4,11,17.9,11.5,18.5,11.8
			L18.5,11.8z"/>
		<path class="st1" d="M7.5,7.5c-2.4,0-4.3,1.9-4.3,4.3c0,2.4,1.9,4.3,4.3,4.3c2.4,0,4.3-1.9,4.3-4.3C11.9,9.4,9.9,7.5,7.5,7.5z
			 M9,11.8c-0.7,0.3-1.1,0.8-1.5,1.5h0c-0.3-0.7-0.8-1.1-1.5-1.5v0c0.7-0.3,1.1-0.8,1.5-1.5h0C7.9,11,8.4,11.5,9,11.8L9,11.8z"/>
	</g>
	<path class="st1" d="M131.2,19.5V8.1h2.3V13h-0.2c0-1.2,0.2-2.1,0.5-2.9c0.3-0.8,0.8-1.4,1.4-1.8c0.6-0.4,1.4-0.6,2.3-0.6h0.1
		c1.4,0,2.4,0.4,3.1,1.3c0.7,0.9,1.1,2.2,1.1,3.9v6.5h-2.9v-6.8c0-0.7-0.2-1.3-0.6-1.7c-0.4-0.4-0.9-0.7-1.6-0.7
		c-0.7,0-1.3,0.2-1.7,0.7c-0.4,0.4-0.7,1-0.7,1.8v6.7h-3.1V19.5z"/>
	<path class="st1" d="M126,19.5V8.1h2.9v11.4H126z M124.4,10.3V8.1h4.5v2.2H124.4z M127,6.7c-0.6,0-1-0.1-1.3-0.4s-0.4-0.7-0.4-1.2
		s0.1-0.8,0.4-1.1s0.7-0.4,1.3-0.4c0.6,0,1,0.1,1.3,0.4s0.4,0.7,0.4,1.1s-0.1,0.8-0.4,1.2C128,6.6,127.6,6.7,127,6.7z"/>
	<path class="st1" d="M121,19.5v-3.4h-0.5v-3.8c0-0.7-0.2-1.1-0.5-1.5c-0.3-0.3-0.8-0.5-1.5-0.5c-0.3,0-0.8,0-1.3,0s-1,0-1.5,0.1
		c-0.5,0-0.9,0-1.3,0.1V8.1c0.3,0,0.7-0.1,1.1-0.1s0.8,0,1.2,0c0.4,0,0.8,0,1.2,0c1.2,0,2.1,0.2,2.9,0.5s1.4,0.8,1.8,1.4
		c0.4,0.7,0.6,1.5,0.6,2.6v7.1H121V19.5z M117.4,19.8c-0.8,0-1.6-0.1-2.2-0.4s-1.1-0.7-1.4-1.3c-0.3-0.5-0.5-1.2-0.5-2
		c0-0.8,0.2-1.5,0.6-2.1c0.4-0.5,1-0.9,1.7-1.2c0.8-0.3,1.6-0.4,2.6-0.4h2.6v1.7h-2.7c-0.7,0-1.2,0.2-1.6,0.5s-0.5,0.7-0.5,1.3
		c0,0.6,0.2,0.9,0.5,1.3c0.4,0.3,0.9,0.5,1.6,0.5c0.4,0,0.8-0.1,1.1-0.2c0.3-0.2,0.6-0.4,0.9-0.8c0.2-0.4,0.4-0.9,0.4-1.5l0.7,0.8
		c-0.1,0.8-0.3,1.5-0.6,2c-0.3,0.5-0.7,1-1.3,1.3C118.8,19.7,118.1,19.8,117.4,19.8z"/>
	<path class="st1" d="M101.5,19.5V4.2h2.9v8.9H104c0-1.1,0.1-2.1,0.4-2.9c0.3-0.8,0.7-1.4,1.3-1.8c0.6-0.4,1.3-0.6,2.2-0.6h0.1
		c1.3,0,2.3,0.4,3,1.3s1,2.2,1,3.9v6.5h-2.9v-6.8c0-0.7-0.2-1.3-0.6-1.7s-0.9-0.6-1.6-0.6s-1.3,0.2-1.7,0.7
		c-0.4,0.5-0.7,1.1-0.7,1.8v6.6C104.5,19.5,101.5,19.5,101.5,19.5z"/>
	<path class="st1" d="M94.8,19.9c-1,0-1.9-0.2-2.6-0.5s-1.3-0.8-1.8-1.3c-0.5-0.6-0.8-1.2-1.1-1.9C89.1,15.5,89,14.7,89,14v-0.4
		c0-0.8,0.1-1.5,0.4-2.2s0.6-1.3,1.1-1.9c0.5-0.6,1.1-1,1.8-1.3c0.7-0.3,1.6-0.5,2.5-0.5c1,0,1.9,0.2,2.7,0.6
		c0.8,0.4,1.4,0.9,1.9,1.6c0.5,0.7,0.7,1.5,0.8,2.4h-2.8c-0.1-0.6-0.3-1.1-0.8-1.5c-0.4-0.4-1-0.6-1.7-0.6c-0.6,0-1.2,0.2-1.6,0.5
		s-0.7,0.7-0.9,1.3c-0.2,0.5-0.3,1.1-0.3,1.8s0.1,1.3,0.3,1.8c0.2,0.5,0.5,1,0.9,1.3s1,0.5,1.7,0.5c0.5,0,0.9-0.1,1.3-0.3
		c0.4-0.2,0.7-0.4,0.9-0.8c0.2-0.3,0.4-0.7,0.4-1.1h2.8c-0.1,0.9-0.3,1.7-0.8,2.4c-0.5,0.7-1.1,1.2-1.9,1.6
		C96.7,19.7,95.9,19.9,94.8,19.9z"/>
	<path class="st1" d="M82.2,19.5V8.1h2.3v4.8h-0.1c0-1.6,0.3-2.9,1.1-3.7c0.7-0.8,1.7-1.3,3.1-1.3H89v2.5h-0.8c-1,0-1.7,0.3-2.3,0.8
		c-0.5,0.5-0.8,1.3-0.8,2.3v5.9L82.2,19.5L82.2,19.5z"/>
	<path class="st1" d="M75.3,19.9c-1,0-1.8-0.2-2.6-0.5c-0.7-0.3-1.3-0.8-1.8-1.3c-0.5-0.6-0.8-1.2-1.1-1.9c-0.2-0.7-0.4-1.4-0.4-2.1
		v-0.4c0-0.8,0.1-1.5,0.4-2.2s0.6-1.3,1.1-1.9c0.5-0.6,1.1-1,1.8-1.3c0.7-0.3,1.5-0.5,2.5-0.5c1.2,0,2.3,0.3,3.1,0.8
		c0.8,0.5,1.5,1.2,1.9,2.1s0.6,1.8,0.6,2.8v1.1H70.7v-1.8H79l-1,0.8c0-0.7-0.1-1.4-0.3-1.9c-0.2-0.5-0.5-0.9-1-1.2
		c-0.4-0.3-1-0.4-1.6-0.4s-1.2,0.1-1.6,0.4s-0.8,0.7-1,1.3c-0.2,0.5-0.3,1.2-0.3,2c0,0.7,0.1,1.4,0.3,1.9c0.2,0.5,0.6,1,1,1.3
		c0.5,0.3,1.1,0.5,1.8,0.5s1.3-0.1,1.7-0.4c0.4-0.3,0.7-0.7,0.9-1.1h2.7c-0.2,0.8-0.5,1.5-1,2.1s-1.1,1-1.8,1.4
		C77.1,19.7,76.2,19.9,75.3,19.9z"/>
	<path class="st1" d="M56.6,23.7V8.1h2.3V13h-0.4c0.1-1.2,0.3-2.1,0.7-2.9c0.4-0.8,1-1.4,1.7-1.7c0.7-0.4,1.5-0.6,2.4-0.6
		c0.8,0,1.5,0.1,2.2,0.4s1.2,0.7,1.7,1.2s0.8,1.2,1.1,1.9c0.3,0.7,0.4,1.5,0.4,2.3V14c0,0.8-0.1,1.6-0.4,2.3
		c-0.2,0.7-0.6,1.3-1.1,1.9c-0.5,0.5-1,1-1.7,1.3s-1.4,0.4-2.2,0.4c-0.9,0-1.6-0.2-2.4-0.5c-0.7-0.4-1.3-0.9-1.7-1.7
		c-0.4-0.8-0.7-1.7-0.7-2.9l0.9,1.4v7.5C59.4,23.7,56.6,23.7,56.6,23.7z M62.6,17.4c0.6,0,1.2-0.2,1.6-0.5c0.5-0.3,0.8-0.7,1.1-1.3
		c0.3-0.6,0.4-1.2,0.4-1.9s-0.1-1.4-0.4-1.9s-0.6-0.9-1.1-1.2s-1-0.5-1.6-0.5s-1.1,0.1-1.6,0.4c-0.5,0.3-0.9,0.6-1.2,1.1
		s-0.4,1.1-0.4,1.8v0.8c0,0.7,0.2,1.2,0.5,1.7c0.3,0.5,0.7,0.8,1.2,1.1C61.5,17.3,62.1,17.4,62.6,17.4z"/>
	<path class="st1" d="M48.1,19.9c-1.3,0-2.3-0.4-3.1-1.3c-0.7-0.9-1.1-2.2-1.1-3.9V8.1h2.9V15c0,0.7,0.2,1.3,0.6,1.7
		c0.4,0.4,0.9,0.6,1.6,0.6s1.2-0.2,1.6-0.7c0.4-0.4,0.7-1,0.7-1.8V8.1h2.9v11.4h-2.3v-4.9h0.2c0,1.1-0.1,2.1-0.4,2.9
		c-0.3,0.8-0.7,1.4-1.3,1.7c-0.6,0.4-1.3,0.6-2.2,0.6L48.1,19.9L48.1,19.9z"/>
	<path class="st1" d="M36.5,19.9c-1.4,0-2.5-0.2-3.4-0.7c-0.9-0.4-1.6-1-2.1-1.8s-0.7-1.6-0.7-2.6h2.9c0,0.4,0.1,0.8,0.3,1.2
		c0.2,0.4,0.6,0.7,1.1,0.9s1.2,0.4,2,0.4c0.7,0,1.3-0.1,1.8-0.3c0.5-0.2,0.9-0.5,1.1-0.8c0.2-0.3,0.4-0.7,0.4-1.2s-0.2-1-0.7-1.3
		s-1.2-0.5-2.1-0.6L35.6,13c-1.5-0.1-2.6-0.6-3.5-1.4c-0.9-0.8-1.3-1.8-1.3-3.1c0-1,0.2-1.8,0.7-2.5s1.1-1.3,1.9-1.6
		c0.8-0.4,1.8-0.6,2.9-0.6c1.2,0,2.2,0.2,3,0.6s1.5,1,2,1.7C41.8,6.8,42,7.6,42,8.6h-2.9c0-0.4-0.1-0.8-0.3-1.2
		c-0.2-0.4-0.5-0.7-0.9-0.9c-0.4-0.2-0.9-0.3-1.5-0.3s-1.1,0.1-1.5,0.3C34.5,6.8,34.2,7,34,7.4c-0.2,0.3-0.3,0.7-0.3,1.1
		c0,0.5,0.2,0.9,0.5,1.3c0.3,0.3,0.9,0.6,1.7,0.6l1.3,0.1c1.1,0.1,2.1,0.3,2.9,0.7c0.8,0.4,1.5,0.9,1.9,1.5c0.5,0.6,0.7,1.4,0.7,2.3
		c0,1-0.3,1.8-0.8,2.6c-0.5,0.7-1.2,1.3-2.2,1.7C38.9,19.7,37.8,19.9,36.5,19.9z"/>
</g>
</svg>
