<svg width="22" height="22" viewBox="0 0 22 22" fill="none" xmlns="http://www.w3.org/2000/svg">
<g id=".logo_op">
<circle id="Ellipse 1" cx="10.99" cy="11" r="10.99" fill="#FF0420"/>
<g id="OP">
<path d="M11.4055 14.0772C11.3498 14.0772 11.3052 14.0577 11.2718 14.0187C11.2384 13.9797 11.2273 13.9296 11.2384 13.8684L12.391 8.43931C12.4022 8.37806 12.4328 8.32794 12.4829 8.28896C12.533 8.24999 12.5859 8.2305 12.6416 8.2305H14.8633C15.203 8.2305 15.5093 8.26947 15.7821 8.34743C16.0605 8.42539 16.2916 8.5451 16.4754 8.70658C16.6591 8.86806 16.7872 9.0713 16.8596 9.31631C16.932 9.55574 16.9347 9.83694 16.8679 10.1599C16.7287 10.8002 16.4447 11.2736 16.016 11.5798C15.5928 11.8861 15.022 12.0392 14.3037 12.0392H13.1762L12.792 13.8684C12.7808 13.9296 12.7502 13.9797 12.7001 14.0187C12.6555 14.0577 12.6026 14.0772 12.5414 14.0772H11.4055ZM13.3933 10.8866H14.3539C14.5822 10.8866 14.7854 10.8253 14.9636 10.7028C15.1473 10.5803 15.267 10.3938 15.3227 10.1432C15.3506 9.99842 15.3561 9.87035 15.3394 9.75898C15.3227 9.64762 15.2643 9.55853 15.164 9.49171C15.0694 9.42489 14.9218 9.39148 14.7214 9.39148H13.7191L13.3933 10.8866Z" fill="white"/>
<path d="M7.83136 14.1607C7.48055 14.1607 7.15481 14.1134 6.85413 14.0187C6.55344 13.924 6.30008 13.7821 6.09406 13.5927C5.88803 13.4034 5.74047 13.1668 5.65138 12.8828C5.56786 12.5988 5.55672 12.2675 5.61797 11.8888C5.66252 11.6494 5.70985 11.41 5.75996 11.1705C5.81565 10.9311 5.87133 10.6889 5.92701 10.4439C6.11076 9.69216 6.44207 9.12142 6.92094 8.73164C7.39982 8.34186 8.04573 8.14697 8.8587 8.14697C9.2095 8.14697 9.53246 8.19709 9.82758 8.29732C10.1283 8.39198 10.3816 8.53675 10.5876 8.73164C10.7992 8.92653 10.9468 9.16596 11.0303 9.44995C11.1194 9.73393 11.1305 10.0652 11.0637 10.4439C11.0248 10.6889 10.9774 10.9311 10.9217 11.1705C10.8716 11.41 10.8187 11.6494 10.763 11.8888C10.5737 12.6517 10.2396 13.2224 9.76076 13.6011C9.28189 13.9742 8.63875 14.1607 7.83136 14.1607ZM7.93994 12.9579C8.24062 12.9579 8.50511 12.8689 8.73341 12.6907C8.96171 12.5125 9.12319 12.2285 9.21785 11.8387C9.2791 11.5937 9.332 11.3626 9.37655 11.1455C9.42666 10.9283 9.47121 10.7028 9.51019 10.4689C9.58257 10.0792 9.54916 9.79518 9.40996 9.61699C9.27075 9.43881 9.0508 9.34972 8.75012 9.34972C8.44943 9.34972 8.18494 9.43881 7.95664 9.61699C7.73391 9.79518 7.57521 10.0792 7.48055 10.4689C7.4193 10.7028 7.36362 10.9283 7.31351 11.1455C7.26896 11.3626 7.22441 11.5937 7.17987 11.8387C7.11305 12.2285 7.14646 12.5125 7.2801 12.6907C7.41374 12.8689 7.63368 12.9579 7.93994 12.9579Z" fill="white"/>
</g>
</g>
</svg>
