<svg width="189" height="22" viewBox="0 0 189 22" fill="none" xmlns="http://www.w3.org/2000/svg">
<circle cx="10.99" cy="11" r="10.99" fill="#FF0420"/>
<path d="M11.4055 14.0772C11.3498 14.0772 11.3052 14.0577 11.2718 14.0187C11.2384 13.9797 11.2273 13.9296 11.2384 13.8684L12.391 8.43931C12.4022 8.37806 12.4328 8.32794 12.4829 8.28896C12.533 8.24999 12.5859 8.2305 12.6416 8.2305H14.8633C15.203 8.2305 15.5093 8.26947 15.7821 8.34743C16.0605 8.42539 16.2916 8.5451 16.4754 8.70658C16.6591 8.86806 16.7872 9.0713 16.8596 9.31631C16.932 9.55574 16.9347 9.83694 16.8679 10.1599C16.7287 10.8002 16.4447 11.2736 16.016 11.5798C15.5928 11.8861 15.022 12.0392 14.3037 12.0392H13.1762L12.792 13.8684C12.7808 13.9296 12.7502 13.9797 12.7001 14.0187C12.6555 14.0577 12.6026 14.0772 12.5414 14.0772H11.4055ZM13.3933 10.8866H14.3539C14.5822 10.8866 14.7854 10.8253 14.9636 10.7028C15.1473 10.5803 15.267 10.3938 15.3227 10.1432C15.3506 9.99842 15.3561 9.87035 15.3394 9.75898C15.3227 9.64762 15.2643 9.55853 15.164 9.49171C15.0694 9.42489 14.9218 9.39148 14.7214 9.39148H13.7191L13.3933 10.8866Z" fill="white"/>
<path d="M7.83136 14.1607C7.48055 14.1607 7.15481 14.1134 6.85413 14.0187C6.55344 13.924 6.30008 13.7821 6.09406 13.5927C5.88803 13.4034 5.74047 13.1668 5.65138 12.8828C5.56786 12.5988 5.55672 12.2675 5.61797 11.8888C5.66252 11.6494 5.70985 11.41 5.75996 11.1705C5.81565 10.9311 5.87133 10.6889 5.92701 10.4439C6.11076 9.69216 6.44207 9.12142 6.92094 8.73164C7.39982 8.34186 8.04573 8.14697 8.8587 8.14697C9.2095 8.14697 9.53246 8.19709 9.82758 8.29732C10.1283 8.39198 10.3816 8.53675 10.5876 8.73164C10.7992 8.92653 10.9468 9.16596 11.0303 9.44995C11.1194 9.73393 11.1305 10.0652 11.0637 10.4439C11.0248 10.6889 10.9774 10.9311 10.9217 11.1705C10.8716 11.41 10.8187 11.6494 10.763 11.8888C10.5737 12.6517 10.2396 13.2224 9.76076 13.6011C9.28189 13.9742 8.63875 14.1607 7.83136 14.1607ZM7.93994 12.9579C8.24062 12.9579 8.50511 12.8689 8.73341 12.6907C8.96171 12.5125 9.12319 12.2285 9.21785 11.8387C9.2791 11.5937 9.332 11.3626 9.37655 11.1455C9.42666 10.9283 9.47121 10.7028 9.51019 10.4689C9.58257 10.0792 9.54916 9.79518 9.40996 9.61699C9.27075 9.43881 9.0508 9.34972 8.75012 9.34972C8.44943 9.34972 8.18494 9.43881 7.95664 9.61699C7.73391 9.79518 7.57521 10.0792 7.48055 10.4689C7.4193 10.7028 7.36362 10.9283 7.31351 11.1455C7.26896 11.3626 7.22441 11.5937 7.17987 11.8387C7.11305 12.2285 7.14646 12.5125 7.2801 12.6907C7.41374 12.8689 7.63368 12.9579 7.93994 12.9579Z" fill="white"/>
<path d="M172.218 18.978C172.066 18.978 171.944 18.9248 171.853 18.8184C171.762 18.712 171.731 18.5753 171.762 18.4081L174.907 3.59198C174.938 3.42482 175.014 3.28806 175.135 3.18169C175.272 3.07532 175.424 3.02213 175.591 3.02213H178.007C178.25 3.02213 178.418 3.07532 178.509 3.18169C178.615 3.28806 178.676 3.37924 178.691 3.45522L182.407 12.2765L184.253 3.59198C184.283 3.42482 184.367 3.28806 184.504 3.18169C184.64 3.07532 184.785 3.02213 184.937 3.02213H187.672C187.839 3.02213 187.961 3.07532 188.037 3.18169C188.128 3.28806 188.158 3.42482 188.128 3.59198L184.982 18.4081C184.952 18.5601 184.868 18.6968 184.732 18.8184C184.61 18.9248 184.466 18.978 184.298 18.978H181.882C181.639 18.978 181.472 18.9248 181.381 18.8184C181.29 18.6968 181.229 18.6057 181.198 18.5449L177.437 10.0427L175.637 18.4081C175.606 18.5753 175.523 18.712 175.386 18.8184C175.264 18.9248 175.12 18.978 174.953 18.978H172.218Z" fill="#FF0420"/>
<path d="M163.916 18.978C163.748 18.978 163.619 18.9248 163.528 18.8184C163.437 18.712 163.407 18.5753 163.437 18.4081L166.605 3.59198C166.636 3.42482 166.719 3.28806 166.856 3.18169C166.993 3.07532 167.137 3.02213 167.289 3.02213H170.366C170.518 3.02213 170.64 3.07532 170.731 3.18169C170.822 3.28806 170.853 3.42482 170.822 3.59198L167.654 18.4081C167.623 18.5753 167.54 18.712 167.403 18.8184C167.282 18.9248 167.145 18.978 166.993 18.978H163.916Z" fill="#FF0420"/>
<path d="M145.162 18.978C144.98 18.978 144.851 18.902 144.775 18.75C144.699 18.5981 144.706 18.4461 144.798 18.2941L153.254 3.66036C153.345 3.49321 153.475 3.34884 153.642 3.22728C153.809 3.09051 154.022 3.02213 154.28 3.02213H157.79C158.049 3.02213 158.231 3.09051 158.337 3.22728C158.459 3.34884 158.527 3.49321 158.542 3.66036L160.776 18.2941C160.822 18.5069 160.784 18.674 160.662 18.7956C160.541 18.9172 160.404 18.978 160.252 18.978H157.494C157.266 18.978 157.099 18.9248 156.992 18.8184C156.901 18.712 156.841 18.5905 156.81 18.4537L156.423 16.1743H150.337L148.969 18.4993C148.893 18.6057 148.787 18.712 148.65 18.8184C148.528 18.9248 148.354 18.978 148.126 18.978H145.162ZM151.955 12.8919H156.195L155.351 6.87432L151.955 12.8919Z" fill="#FF0420"/>
<path d="M128.702 18.978C128.55 18.978 128.429 18.9248 128.338 18.8184C128.247 18.712 128.216 18.5753 128.247 18.4081L131.392 3.59198C131.422 3.42482 131.506 3.28806 131.643 3.18169C131.78 3.07532 131.924 3.02213 132.076 3.02213H135.016C135.183 3.02213 135.313 3.07532 135.404 3.18169C135.495 3.28806 135.525 3.42482 135.495 3.59198L134.31 9.08534H139.94L141.102 3.59198C141.133 3.42482 141.209 3.28806 141.33 3.18169C141.467 3.07532 141.619 3.02213 141.786 3.02213H144.727C144.894 3.02213 145.023 3.07532 145.114 3.18169C145.205 3.28806 145.236 3.42482 145.205 3.59198L142.037 18.4081C142.007 18.5753 141.923 18.712 141.786 18.8184C141.665 18.9248 141.52 18.978 141.353 18.978H138.413C138.245 18.978 138.116 18.9248 138.025 18.8184C137.949 18.712 137.926 18.5753 137.957 18.4081L139.165 12.7324H133.558L132.327 18.4081C132.296 18.5753 132.213 18.712 132.076 18.8184C131.954 18.9248 131.81 18.978 131.643 18.978H128.702Z" fill="#FF0420"/>
<path d="M118.076 19.2059C117.043 19.2059 116.109 19.0767 115.273 18.8184C114.452 18.5601 113.768 18.1726 113.221 17.6559C112.674 17.124 112.294 16.4782 112.082 15.7184C111.869 14.9434 111.846 14.0468 112.013 13.0287C112.12 12.4057 112.249 11.7371 112.401 11.0228C112.568 10.3086 112.727 9.6248 112.879 8.97137C113.214 7.64932 113.73 6.53241 114.429 5.62065C115.128 4.69369 116.01 3.99468 117.074 3.5236C118.152 3.03733 119.421 2.79419 120.88 2.79419C121.853 2.79419 122.757 2.91576 123.593 3.15889C124.428 3.40203 125.135 3.76674 125.712 4.25301C126.305 4.72409 126.731 5.30153 126.989 5.98535C127.262 6.65398 127.316 7.42138 127.148 8.28755C127.118 8.42432 127.05 8.53829 126.943 8.62946C126.852 8.72064 126.738 8.76623 126.601 8.76623H123.501C123.304 8.76623 123.152 8.72824 123.046 8.65226C122.954 8.56108 122.894 8.40152 122.863 8.17358C122.878 7.38339 122.673 6.83633 122.248 6.53241C121.822 6.22849 121.26 6.07653 120.561 6.07653C119.725 6.07653 119.003 6.31207 118.396 6.78315C117.788 7.23903 117.355 8.00643 117.096 9.08534C116.777 10.3314 116.504 11.6079 116.276 12.9147C116.078 13.9937 116.169 14.7687 116.549 15.2397C116.929 15.6956 117.537 15.9236 118.373 15.9236C119.072 15.9236 119.702 15.7716 120.265 15.4677C120.827 15.1638 121.29 14.6167 121.655 13.8265C121.777 13.5986 121.898 13.4466 122.02 13.3706C122.141 13.2794 122.301 13.2339 122.498 13.2339H125.598C125.735 13.2339 125.842 13.2794 125.918 13.3706C125.994 13.4618 126.016 13.5758 125.986 13.7125C125.773 14.5635 125.439 15.3309 124.983 16.0147C124.542 16.6834 123.98 17.2608 123.296 17.7471C122.628 18.2182 121.86 18.5829 120.994 18.8412C120.128 19.0843 119.155 19.2059 118.076 19.2059Z" fill="#FF0420"/>
<path d="M95.4555 18.978C95.2883 18.978 95.1592 18.9248 95.068 18.8184C94.992 18.712 94.9692 18.5753 94.9996 18.4081L98.1452 3.59198C98.1756 3.42482 98.2592 3.28806 98.3959 3.18169C98.5327 3.07532 98.6847 3.02213 98.8518 3.02213H105.052C107.012 3.02213 108.456 3.47801 109.383 4.38977C110.325 5.28634 110.621 6.5628 110.272 8.21917C110.044 9.29809 109.588 10.2099 108.904 10.9545C108.235 11.6991 107.438 12.2613 106.511 12.6412L108.448 18.2485C108.463 18.2941 108.471 18.3321 108.471 18.3625C108.471 18.3929 108.463 18.4385 108.448 18.4993C108.433 18.6209 108.365 18.7348 108.243 18.8412C108.121 18.9324 107.992 18.978 107.855 18.978H104.847C104.558 18.978 104.36 18.9096 104.254 18.7728C104.163 18.6209 104.094 18.4841 104.049 18.3625L102.522 13.3478H100.174L99.1025 18.4081C99.0722 18.5753 98.9886 18.712 98.8518 18.8184C98.715 18.9248 98.5631 18.978 98.3959 18.978H95.4555ZM100.858 10.1339H103.502C104.216 10.1339 104.786 9.95912 105.211 9.60961C105.637 9.2601 105.918 8.78142 106.055 8.17358C106.176 7.58094 106.1 7.10226 105.827 6.73756C105.568 6.37285 105.067 6.1905 104.322 6.1905H101.701L100.858 10.1339Z" fill="#FF0420"/>
<path d="M79.689 18.978C79.537 18.978 79.4154 18.9248 79.3243 18.8184C79.2331 18.712 79.2027 18.5753 79.2331 18.4081L82.3787 3.59198C82.4091 3.42482 82.4926 3.28806 82.6294 3.18169C82.7662 3.07532 82.9105 3.02213 83.0625 3.02213H93.7073C93.8745 3.02213 93.996 3.07532 94.072 3.18169C94.1632 3.28806 94.1936 3.42482 94.1632 3.59198L93.7301 5.73462C93.6845 5.90178 93.5933 6.03854 93.4566 6.14491C93.335 6.25129 93.1906 6.30447 93.0235 6.30447H85.7522L85.0912 9.38167H91.8382C92.0054 9.38167 92.1345 9.44245 92.2257 9.56402C92.3169 9.67039 92.3473 9.80716 92.3169 9.97431L91.8838 11.9574C91.8534 12.1094 91.7698 12.2461 91.6331 12.3677C91.5115 12.4741 91.3671 12.5272 91.2 12.5272H84.4301L83.7691 15.6956H91.2C91.3671 15.6956 91.4887 15.7488 91.5647 15.8552C91.6558 15.9615 91.6862 16.0983 91.6558 16.2655L91.2 18.4081C91.1696 18.5753 91.086 18.712 90.9492 18.8184C90.8277 18.9248 90.6833 18.978 90.5161 18.978H79.689Z" fill="#FF0420"/>
<path d="M63.3734 18.978C63.2215 18.978 63.0999 18.9248 63.0087 18.8184C62.9175 18.712 62.8872 18.5753 62.9175 18.4081L66.0631 3.59198C66.0935 3.42482 66.1771 3.28806 66.3139 3.18169C66.4506 3.07532 66.595 3.02213 66.7469 3.02213H72.8102C73.7371 3.02213 74.5729 3.1285 75.3175 3.34125C76.0773 3.55399 76.7079 3.88071 77.2094 4.32139C77.7109 4.76208 78.0604 5.31673 78.2579 5.98535C78.4555 6.63878 78.4631 7.40618 78.2807 8.28755C77.9008 10.0351 77.1258 11.3268 75.9557 12.1625C74.8008 12.9983 73.2432 13.4162 71.283 13.4162H68.2058L67.1572 18.4081C67.1268 18.5753 67.0433 18.712 66.9065 18.8184C66.7849 18.9248 66.6406 18.978 66.4734 18.978H63.3734ZM68.7984 10.2706H71.4197C72.0428 10.2706 72.5974 10.1035 73.0837 9.76917C73.5852 9.43485 73.9119 8.92579 74.0638 8.24197C74.1398 7.84687 74.155 7.49736 74.1094 7.19344C74.0638 6.88952 73.9043 6.64638 73.6307 6.46403C73.3724 6.28168 72.9697 6.1905 72.4227 6.1905H69.6874L68.7984 10.2706Z" fill="#FF0420"/>
<path d="M52.3272 19.2059C51.3547 19.2059 50.4581 19.0843 49.6375 18.8412C48.8169 18.5829 48.1331 18.1954 47.5861 17.6787C47.039 17.162 46.6667 16.5086 46.4692 15.7184C46.2716 14.9282 46.2868 13.9861 46.5147 12.8919L48.475 3.59198C48.5054 3.42482 48.589 3.28806 48.7258 3.18169C48.8625 3.07532 49.0145 3.02213 49.1816 3.02213H52.1221C52.2892 3.02213 52.4108 3.07532 52.4868 3.18169C52.578 3.28806 52.6084 3.42482 52.578 3.59198L50.5949 12.8692C50.3973 13.8569 50.4505 14.6015 50.7544 15.103C51.0736 15.5892 51.6966 15.8324 52.6235 15.8324C53.5353 15.8324 54.2799 15.5892 54.8574 15.103C55.4348 14.6015 55.8299 13.8569 56.0427 12.8692L58.0257 3.59198C58.0561 3.42482 58.1397 3.28806 58.2765 3.18169C58.4132 3.07532 58.5576 3.02213 58.7096 3.02213H61.65C61.8171 3.02213 61.9387 3.07532 62.0147 3.18169C62.1059 3.28806 62.1363 3.42482 62.1059 3.59198L60.1456 12.8919C59.6745 15.065 58.8083 16.6606 57.5471 17.6787C56.301 18.6968 54.561 19.2059 52.3272 19.2059Z" fill="#FF0420"/>
<path d="M35.5939 19.2059C34.0743 19.2059 32.8282 18.9932 31.8557 18.5677C30.8983 18.1422 30.2069 17.5799 29.7814 16.8809C29.3711 16.1667 29.2268 15.4145 29.3483 14.6243C29.3787 14.5027 29.4395 14.3964 29.5307 14.3052C29.637 14.1988 29.7586 14.1456 29.8954 14.1456H32.813C33.0258 14.1456 33.1777 14.1836 33.2689 14.2596C33.3601 14.3356 33.4512 14.4343 33.5424 14.5559C33.6032 14.7839 33.7248 15.0042 33.9071 15.2169C34.0895 15.4297 34.3402 15.6044 34.6593 15.7412C34.9936 15.8628 35.4039 15.9236 35.8902 15.9236C36.7716 15.9236 37.4782 15.7868 38.0101 15.5133C38.5419 15.2397 38.8534 14.8674 38.9446 14.3964C39.0358 14.062 38.975 13.7885 38.7623 13.5758C38.5647 13.3478 38.2076 13.1503 37.6909 12.9831C37.1895 12.8008 36.5132 12.6184 35.6623 12.4361C34.553 12.1929 33.6412 11.8586 32.927 11.4331C32.2128 10.9924 31.7113 10.4378 31.4226 9.76917C31.1491 9.08534 31.1111 8.27236 31.3086 7.3302C31.6125 5.93217 32.3647 4.83046 33.5652 4.02507C34.7657 3.20448 36.3233 2.79419 38.238 2.79419C39.2257 2.79419 40.0995 2.93095 40.8593 3.20448C41.6343 3.47801 42.2801 3.84272 42.7968 4.2986C43.3135 4.75448 43.6858 5.24075 43.9137 5.75741C44.1417 6.25888 44.2176 6.75275 44.1417 7.23903C44.1265 7.3606 44.0657 7.47457 43.9593 7.58094C43.8529 7.67211 43.7314 7.7177 43.5946 7.7177H40.5402C40.3882 7.7177 40.2515 7.68731 40.1299 7.62653C40.0235 7.56574 39.9324 7.46697 39.8564 7.3302C39.8564 6.99589 39.6816 6.70717 39.3321 6.46403C38.9826 6.2057 38.5191 6.07653 37.9417 6.07653C37.2882 6.07653 36.7412 6.1981 36.3005 6.44124C35.8598 6.66918 35.5863 7.02628 35.4799 7.51256C35.4039 7.81648 35.4419 8.08241 35.5939 8.31035C35.761 8.53829 36.065 8.73584 36.5057 8.90299C36.9615 9.07015 37.5846 9.2449 38.3748 9.42726C39.712 9.68559 40.7605 10.0351 41.5203 10.4758C42.2801 10.9013 42.7892 11.4407 43.0475 12.0942C43.3211 12.7476 43.3591 13.5454 43.1615 14.4875C42.8272 16.0375 42.0142 17.2152 40.7225 18.0206C39.4461 18.8108 37.7365 19.2059 35.5939 19.2059Z" fill="#FF0420"/>
</svg>
