<svg width="160" height="97" viewBox="0 0 160 97" fill="none" xmlns="http://www.w3.org/2000/svg">
<circle cx="80" cy="18" r="18" fill="#FF0420"/>
<path d="M80.6804 23.0409C80.5892 23.0409 80.5163 23.009 80.4615 22.9452C80.4068 22.8813 80.3886 22.7992 80.4068 22.6989L82.2947 13.8069C82.3129 13.7066 82.3631 13.6245 82.4451 13.5607C82.5272 13.4968 82.6139 13.4649 82.7051 13.4649H86.3439C86.9003 13.4649 87.4019 13.5288 87.8487 13.6564C88.3047 13.7841 88.6832 13.9802 88.9842 14.2447C89.2851 14.5092 89.4949 14.842 89.6135 15.2433C89.732 15.6355 89.7366 16.096 89.6271 16.625C89.3991 17.6738 88.934 18.449 88.2318 18.9506C87.5387 19.4522 86.6039 19.703 85.4274 19.703H83.5806L82.9513 22.6989C82.9331 22.7992 82.8829 22.8813 82.8008 22.9452C82.7279 23.009 82.6412 23.0409 82.5409 23.0409H80.6804ZM83.9363 17.8152H85.5095C85.8834 17.8152 86.2163 17.7148 86.5081 17.5142C86.8091 17.3136 87.0051 17.008 87.0963 16.5976C87.1419 16.3605 87.1511 16.1508 87.1237 15.9684C87.0963 15.786 87.0006 15.64 86.8364 15.5306C86.6814 15.4212 86.4397 15.3664 86.1114 15.3664H84.4698L83.9363 17.8152Z" fill="white"/>
<path d="M74.8266 23.1777C74.252 23.1777 73.7185 23.1002 73.226 22.9452C72.7335 22.7901 72.3186 22.5576 71.9811 22.2475C71.6437 21.9374 71.402 21.5498 71.2561 21.0847C71.1193 20.6196 71.101 20.0769 71.2014 19.4568C71.2743 19.0646 71.3518 18.6724 71.4339 18.2803C71.5251 17.8881 71.6163 17.4914 71.7075 17.0901C72.0085 15.8589 72.5511 14.9241 73.3354 14.2857C74.1198 13.6473 75.1777 13.3281 76.5092 13.3281C77.0838 13.3281 77.6127 13.4102 78.0961 13.5744C78.5886 13.7294 79.0035 13.9665 79.341 14.2857C79.6875 14.6049 79.9292 14.9971 80.066 15.4622C80.2119 15.9273 80.2302 16.47 80.1207 17.0901C80.0569 17.4914 79.9794 17.8881 79.8882 18.2803C79.8061 18.6724 79.7194 19.0646 79.6282 19.4568C79.3182 20.7062 78.771 21.641 77.9866 22.2612C77.2023 22.8722 76.149 23.1777 74.8266 23.1777ZM75.0044 21.2078C75.4969 21.2078 75.9301 21.0619 76.304 20.77C76.6779 20.4782 76.9424 20.0131 77.0974 19.3747C77.1978 18.9734 77.2844 18.5949 77.3574 18.2392C77.4394 17.8836 77.5124 17.5142 77.5762 17.1312C77.6948 16.4928 77.6401 16.0276 77.4121 15.7358C77.1841 15.444 76.8238 15.298 76.3314 15.298C75.8389 15.298 75.4057 15.444 75.0318 15.7358C74.667 16.0276 74.407 16.4928 74.252 17.1312C74.1517 17.5142 74.0605 17.8836 73.9784 18.2392C73.9054 18.5949 73.8325 18.9734 73.7595 19.3747C73.6501 20.0131 73.7048 20.4782 73.9237 20.77C74.1426 21.0619 74.5028 21.2078 75.0044 21.2078Z" fill="white"/>
<path d="M143.735 66.4593V50.3917H146.99V57.2863H146.694C146.694 55.6489 146.911 54.2878 147.345 53.2028C147.779 52.0981 148.421 51.2696 149.269 50.7172C150.137 50.1648 151.212 49.8887 152.494 49.8887H152.672C154.585 49.8887 156.035 50.5101 157.021 51.7529C158.008 52.9759 158.501 54.8105 158.501 57.2567V66.4593H154.388V56.9016C154.388 55.9153 154.102 55.1163 153.53 54.5048C152.977 53.8932 152.208 53.5875 151.222 53.5875C150.216 53.5875 149.397 53.9031 148.766 54.5344C148.154 55.1459 147.848 55.9744 147.848 57.02V66.4593H143.735Z" fill="black"/>
<path d="M136.361 66.4591V50.3915H140.474V66.4591H136.361ZM134.112 53.4689V50.3915H140.474V53.4689H134.112ZM137.87 48.4682C137.061 48.4682 136.46 48.261 136.065 47.8468C135.69 47.4128 135.503 46.8703 135.503 46.2193C135.503 45.5683 135.69 45.0357 136.065 44.6214C136.46 44.2071 137.061 44 137.87 44C138.679 44 139.271 44.2071 139.646 44.6214C140.021 45.0357 140.208 45.5683 140.208 46.2193C140.208 46.8703 140.021 47.4128 139.646 47.8468C139.271 48.261 138.679 48.4682 137.87 48.4682Z" fill="black"/>
<path d="M129.411 66.4586V61.6946H128.73V56.3979C128.73 55.4707 128.504 54.7803 128.05 54.3265C127.596 53.8728 126.896 53.646 125.949 53.646C125.456 53.646 124.864 53.6558 124.173 53.6756C123.483 53.6953 122.783 53.7249 122.073 53.7643C121.382 53.7841 120.761 53.8136 120.208 53.8531V50.3614C120.662 50.322 121.175 50.2825 121.747 50.2431C122.319 50.2036 122.901 50.1839 123.493 50.1839C124.104 50.1642 124.676 50.1543 125.209 50.1543C126.866 50.1543 128.237 50.3713 129.322 50.8053C130.427 51.2393 131.255 51.9199 131.808 52.847C132.38 53.7742 132.666 54.9874 132.666 56.4867V66.4586H129.411ZM124.233 66.8729C123.069 66.8729 122.043 66.6658 121.155 66.2515C120.287 65.8372 119.607 65.2454 119.114 64.4761C118.64 63.7067 118.403 62.7796 118.403 61.6946C118.403 60.511 118.689 59.5443 119.261 58.7947C119.853 58.0451 120.672 57.4829 121.717 57.1081C122.783 56.7332 124.026 56.5458 125.446 56.5458H129.174V59.0018H125.387C124.44 59.0018 123.71 59.2386 123.197 59.712C122.704 60.1657 122.457 60.7575 122.457 61.4874C122.457 62.2173 122.704 62.8091 123.197 63.2629C123.71 63.7166 124.44 63.9434 125.387 63.9434C125.959 63.9434 126.482 63.8448 126.955 63.6475C127.448 63.4305 127.853 63.0755 128.168 62.5823C128.504 62.0694 128.691 61.3789 128.73 60.511L129.736 61.665C129.638 62.7894 129.362 63.7363 128.908 64.5057C128.474 65.275 127.862 65.8668 127.073 66.2811C126.304 66.6756 125.357 66.8729 124.233 66.8729Z" fill="black"/>
<path d="M101.967 66.4604V44.8594H106.08V57.4649H105.37C105.37 55.8473 105.577 54.4763 105.991 53.3518C106.405 52.2274 107.017 51.3693 107.826 50.7775C108.654 50.1857 109.7 49.8898 110.962 49.8898H111.14C112.974 49.8898 114.365 50.521 115.312 51.7835C116.259 53.0461 116.732 54.8807 116.732 57.2874V66.4604H112.619V56.9027C112.619 55.8769 112.323 55.0681 111.732 54.4763C111.16 53.8845 110.4 53.5886 109.453 53.5886C108.447 53.5886 107.628 53.9239 106.997 54.5946C106.386 55.2456 106.08 56.1037 106.08 57.169V66.4604H101.967Z" fill="black"/>
<path d="M92.5169 67.0202C91.1163 67.0202 89.903 66.7834 88.8772 66.31C87.8712 65.8366 87.0229 65.2053 86.3325 64.4162C85.6617 63.6271 85.1587 62.7394 84.8234 61.7531C84.488 60.7667 84.3203 59.7607 84.3203 58.7348V58.1726C84.3203 57.0876 84.488 56.052 84.8234 55.0656C85.1784 54.0596 85.7012 53.1718 86.3916 52.4025C87.0821 51.6134 87.9304 50.992 88.9364 50.5383C89.9622 50.0648 91.1458 49.8281 92.4873 49.8281C93.8879 49.8281 95.1406 50.1043 96.2453 50.6567C97.35 51.1893 98.2278 51.9389 98.8788 52.9055C99.5495 53.8722 99.9243 54.9966 100.003 56.2788H96.0085C95.9099 55.4503 95.5548 54.7599 94.9433 54.2075C94.3515 53.6552 93.5328 53.379 92.4873 53.379C91.5798 53.379 90.8203 53.596 90.2088 54.03C89.617 54.464 89.1731 55.0656 88.8772 55.835C88.5813 56.5846 88.4334 57.4526 88.4334 58.4389C88.4334 59.3858 88.5715 60.244 88.8477 61.0133C89.1436 61.7827 89.5874 62.3843 90.1792 62.8183C90.7908 63.2523 91.57 63.4693 92.5169 63.4693C93.227 63.4693 93.8386 63.3411 94.3515 63.0846C94.8644 62.8282 95.2688 62.4731 95.5647 62.0194C95.8803 61.5657 96.0776 61.0528 96.1565 60.4807H100.151C100.072 61.7827 99.6876 62.9268 98.9972 63.9132C98.3265 64.8798 97.4289 65.6393 96.3044 66.1916C95.1997 66.744 93.9372 67.0202 92.5169 67.0202Z" fill="black"/>
<path d="M74.6416 66.4583V50.3907H77.8965V57.1965H77.8078C77.8078 54.8885 78.301 53.1426 79.2873 51.959C80.2737 50.7754 81.7236 50.1836 83.6371 50.1836H84.2289V53.764H83.1045C81.7236 53.764 80.6485 54.1388 79.8791 54.8885C79.1295 55.6184 78.7547 56.6836 78.7547 58.0842V66.4583H74.6416Z" fill="black"/>
<path d="M64.9618 67.0202C63.5809 67.0202 62.3677 66.7834 61.3222 66.31C60.2964 65.8366 59.4382 65.2053 58.7478 64.4162C58.0771 63.6074 57.5642 62.7098 57.2091 61.7235C56.8737 60.7371 56.7061 59.7311 56.7061 58.7053V58.143C56.7061 57.0778 56.8737 56.052 57.2091 55.0656C57.5642 54.0596 58.0771 53.1718 58.7478 52.4025C59.4382 51.6134 60.2865 50.992 61.2926 50.5383C62.2987 50.0648 63.4625 49.8281 64.7842 49.8281C66.5202 49.8281 67.9702 50.2128 69.134 50.9822C70.3177 51.7318 71.2054 52.728 71.7972 53.9708C72.389 55.1939 72.6849 56.5156 72.6849 57.9359V59.4154H58.4519V56.9002H70.1105L68.8381 58.143C68.8381 57.1172 68.6902 56.2394 68.3943 55.5095C68.0984 54.7796 67.6447 54.2174 67.0331 53.8228C66.4413 53.4283 65.6917 53.231 64.7842 53.231C63.8768 53.231 63.1075 53.4382 62.4762 53.8524C61.8449 54.2667 61.3616 54.8684 61.0263 55.6574C60.7106 56.4268 60.5528 57.354 60.5528 58.4389C60.5528 59.445 60.7106 60.3426 61.0263 61.1317C61.3419 61.901 61.8252 62.5126 62.4762 62.9663C63.1272 63.4003 63.9557 63.6173 64.9618 63.6173C65.9679 63.6173 66.7865 63.42 67.4178 63.0255C68.0491 62.6112 68.4535 62.1082 68.631 61.5163H72.4186C72.1819 62.6211 71.7281 63.5877 71.0574 64.4162C70.3867 65.2447 69.5286 65.8859 68.4831 66.3396C67.4572 66.7933 66.2835 67.0202 64.9618 67.0202Z" fill="black"/>
<path d="M38.5625 72.3774V50.3917H41.8175V57.3159L41.3144 57.2863C41.3933 55.6489 41.7287 54.2779 42.3205 53.1732C42.932 52.0685 43.7408 51.2498 44.7469 50.7172C45.753 50.1648 46.8774 49.8887 48.1202 49.8887C49.2644 49.8887 50.2902 50.0958 51.1976 50.5101C52.1248 50.9243 52.9139 51.5063 53.5649 52.2559C54.2356 53.0055 54.7485 53.8834 55.1036 54.8895C55.4586 55.8758 55.6362 56.9411 55.6362 58.0852V58.7066C55.6362 59.8705 55.4586 60.9555 55.1036 61.9616C54.7682 62.9479 54.2652 63.8258 53.5944 64.5951C52.9435 65.3447 52.1544 65.9366 51.2272 66.3705C50.3 66.7848 49.2644 66.9919 48.1202 66.9919C46.9169 66.9919 45.8122 66.7454 44.8061 66.2522C43.8197 65.7393 43.0208 64.9601 42.4093 63.9145C41.7977 62.8493 41.4525 61.4783 41.3736 59.8015L42.6756 61.784V72.3774H38.5625ZM47.0845 63.5299C47.9723 63.5299 48.7416 63.3129 49.3926 62.8789C50.0633 62.4449 50.5861 61.8432 50.9609 61.0739C51.3357 60.2848 51.5231 59.3971 51.5231 58.4107C51.5231 57.3849 51.3357 56.4972 50.9609 55.7476C50.5861 54.998 50.0633 54.416 49.3926 54.0017C48.7416 53.5677 47.9723 53.3508 47.0845 53.3508C46.2757 53.3508 45.5261 53.5283 44.8357 53.8834C44.165 54.2385 43.6126 54.7612 43.1786 55.4517C42.7643 56.1421 42.5572 56.9706 42.5572 57.9373V59.1209C42.5572 60.0481 42.7742 60.8371 43.2082 61.4881C43.6422 62.1391 44.2044 62.6422 44.8949 62.9972C45.5853 63.3523 46.3152 63.5299 47.0845 63.5299Z" fill="black"/>
<path d="M26.6174 66.9635C24.7631 66.9635 23.323 66.352 22.2972 65.1289C21.2911 63.9058 20.7881 62.091 20.7881 59.6843V50.3633H24.9012V60.0394C24.9012 61.0257 25.1773 61.8148 25.7297 62.4066C26.282 62.9787 27.0317 63.2647 27.9786 63.2647C28.9255 63.2647 29.6948 62.9589 30.2866 62.3474C30.8982 61.7359 31.2039 60.9073 31.2039 59.8618V50.3633H35.317V66.4605H32.062V59.6251H32.3875C32.3875 61.2427 32.1804 62.594 31.7661 63.679C31.3519 64.764 30.7305 65.5826 29.9019 66.135C29.0734 66.6873 28.0377 66.9635 26.7949 66.9635H26.6174Z" fill="black"/>
<path d="M10.3771 67.021C8.46362 67.021 6.84601 66.7152 5.5243 66.1037C4.22232 65.4921 3.22611 64.6537 2.53567 63.5885C1.84522 62.5035 1.5 61.2804 1.5 59.9193H5.61307C5.61307 60.4913 5.77089 61.0536 6.08652 61.6059C6.40215 62.1385 6.90519 62.5725 7.59563 62.9079C8.3058 63.2433 9.23297 63.4109 10.3771 63.4109C11.4029 63.4109 12.2611 63.263 12.9515 62.9671C13.6419 62.6712 14.1548 62.2865 14.4902 61.8131C14.8256 61.3199 14.9932 60.7675 14.9932 60.156C14.9932 59.3866 14.6677 58.7751 14.0168 58.3214C13.3658 57.8479 12.3597 57.552 10.9985 57.4337L9.10474 57.2857C7.03341 57.1082 5.37635 56.467 4.13355 55.3623C2.91048 54.2379 2.29894 52.7584 2.29894 50.9238C2.29894 49.5429 2.62444 48.3593 3.27543 47.3729C3.92642 46.3668 4.83386 45.5975 5.99775 45.0649C7.18137 44.5125 8.56225 44.2363 10.1404 44.2363C11.7777 44.2363 13.1882 44.5224 14.3718 45.0945C15.5555 45.6665 16.4728 46.4753 17.1238 47.5209C17.7747 48.5467 18.1002 49.7599 18.1002 51.1605H13.9872C13.9872 50.5687 13.8392 50.0262 13.5433 49.533C13.2671 49.0201 12.843 48.6157 12.2709 48.3198C11.7186 48.0042 11.0084 47.8464 10.1404 47.8464C9.31188 47.8464 8.62143 47.9845 8.06908 48.2606C7.51672 48.5368 7.10246 48.9116 6.82628 49.3851C6.5501 49.8585 6.41201 50.3714 6.41201 50.9238C6.41201 51.5945 6.6586 52.1863 7.15177 52.6992C7.64495 53.1924 8.42416 53.4784 9.48942 53.5573L11.3832 53.7349C12.9219 53.8532 14.2732 54.1787 15.4371 54.7113C16.601 55.244 17.4986 55.964 18.1298 56.8714C18.7808 57.7789 19.1063 58.8737 19.1063 60.156C19.1063 61.5171 18.7512 62.7205 18.0411 63.766C17.3309 64.7918 16.3149 65.5908 14.9932 66.1628C13.6913 66.7349 12.1526 67.021 10.3771 67.021Z" fill="black"/>
<path d="M24.4228 93.441V92.001H27.3348C28.0388 92.001 28.6628 91.889 29.2068 91.665C29.7614 91.4303 30.2308 91.1103 30.6148 90.705C31.0094 90.2996 31.3081 89.825 31.5108 89.281C31.7134 88.737 31.8148 88.1503 31.8148 87.521C31.8148 86.8596 31.7134 86.2623 31.5108 85.729C31.3081 85.185 31.0094 84.7156 30.6148 84.321C30.2308 83.9156 29.7614 83.6063 29.2068 83.393C28.6628 83.1796 28.0388 83.073 27.3348 83.073H24.4228V81.633H27.1748C28.2308 81.633 29.1481 81.7983 29.9268 82.129C30.7054 82.449 31.3508 82.8863 31.8628 83.441C32.3854 83.985 32.7748 84.5983 33.0308 85.281C33.2868 85.953 33.4148 86.641 33.4148 87.345V87.697C33.4148 88.3796 33.2868 89.0623 33.0308 89.745C32.7748 90.4276 32.3854 91.0463 31.8628 91.601C31.3508 92.1556 30.7054 92.6036 29.9268 92.945C29.1481 93.2756 28.2308 93.441 27.1748 93.441H24.4228ZM23.1748 93.441V81.633H24.7428V93.441H23.1748ZM38.391 93.377V81.697H39.959V93.377H38.391ZM39.639 93.377V91.969H45.303V93.377H39.639ZM39.639 88.145V86.737H44.807V88.145H39.639ZM39.639 83.105V81.697H45.143V83.105H39.639ZM53.2488 93.377L49.2008 81.697H50.8168L54.4488 92.353L53.6808 91.969H55.6008L54.7848 92.353L58.1288 81.697H59.6968L55.9368 93.377H53.2488ZM64.4329 93.377V81.697H66.0009V93.377H64.4329ZM65.6809 93.377V91.969H71.3449V93.377H65.6809ZM65.6809 88.145V86.737H70.8489V88.145H65.6809ZM65.6809 83.105V81.697H71.1849V83.105H65.6809ZM76.5866 93.377V81.697H78.1546V93.377H76.5866ZM77.8346 93.377V91.969H83.1786V93.377H77.8346ZM92.8943 93.665C91.8489 93.665 90.9476 93.4783 90.1903 93.105C89.4329 92.7316 88.8089 92.241 88.3183 91.633C87.8276 91.025 87.4596 90.3743 87.2143 89.681C86.9796 88.9876 86.8623 88.321 86.8623 87.681V87.329C86.8623 86.6356 86.9849 85.937 87.2303 85.233C87.4756 84.529 87.8489 83.889 88.3503 83.313C88.8516 82.7263 89.4756 82.257 90.2223 81.905C90.9796 81.553 91.8703 81.377 92.8943 81.377C93.9183 81.377 94.8036 81.553 95.5503 81.905C96.3076 82.257 96.9369 82.7263 97.4383 83.313C97.9396 83.889 98.3129 84.529 98.5583 85.233C98.8036 85.937 98.9263 86.6356 98.9263 87.329V87.681C98.9263 88.321 98.8036 88.9876 98.5583 89.681C98.3236 90.3743 97.9609 91.025 97.4703 91.633C96.9796 92.241 96.3556 92.7316 95.5983 93.105C94.8409 93.4783 93.9396 93.665 92.8943 93.665ZM92.8943 92.225C93.5769 92.225 94.1903 92.097 94.7343 91.841C95.2889 91.585 95.7583 91.2383 96.1423 90.801C96.5263 90.353 96.8196 89.8516 97.0223 89.297C97.2249 88.7316 97.3263 88.1396 97.3263 87.521C97.3263 86.8703 97.2249 86.2623 97.0223 85.697C96.8196 85.1316 96.5263 84.6356 96.1423 84.209C95.7583 83.7716 95.2889 83.4303 94.7343 83.185C94.1903 82.9396 93.5769 82.817 92.8943 82.817C92.2116 82.817 91.5929 82.9396 91.0383 83.185C90.4943 83.4303 90.0303 83.7716 89.6463 84.209C89.2623 84.6356 88.9689 85.1316 88.7663 85.697C88.5636 86.2623 88.4623 86.8703 88.4623 87.521C88.4623 88.1396 88.5636 88.7316 88.7663 89.297C88.9689 89.8516 89.2623 90.353 89.6463 90.801C90.0303 91.2383 90.4943 91.585 91.0383 91.841C91.5929 92.097 92.2116 92.225 92.8943 92.225ZM105.314 89.313V87.937H107.922C108.477 87.937 108.935 87.8303 109.298 87.617C109.661 87.393 109.933 87.0943 110.114 86.721C110.306 86.3476 110.402 85.9316 110.402 85.473C110.402 85.0036 110.306 84.5823 110.114 84.209C109.933 83.8356 109.661 83.5423 109.298 83.329C108.935 83.1156 108.477 83.009 107.922 83.009H105.314V81.633H107.634C108.594 81.633 109.394 81.7876 110.034 82.097C110.685 82.3956 111.175 82.8223 111.506 83.377C111.837 83.9316 112.002 84.5876 112.002 85.345V85.601C112.002 86.3476 111.837 87.0036 111.506 87.569C111.175 88.1236 110.685 88.5556 110.034 88.865C109.394 89.1636 108.594 89.313 107.634 89.313H105.314ZM104.066 93.377V81.633H105.634V93.377H104.066ZM116.86 93.377V81.697H118.428V93.377H116.86ZM118.108 93.377V91.969H123.772V93.377H118.108ZM118.108 88.145V86.737H123.276V88.145H118.108ZM118.108 83.105V81.697H123.612V83.105H118.108ZM129.014 93.377V81.633H130.582V93.377H129.014ZM136.23 93.377L132.358 88.177H134.198L138.134 93.377H136.23ZM129.99 89.153V87.761H133.126C133.617 87.761 134.038 87.6596 134.39 87.457C134.742 87.2543 135.014 86.977 135.206 86.625C135.398 86.2623 135.494 85.8516 135.494 85.393C135.494 84.9343 135.398 84.529 135.206 84.177C135.014 83.8143 134.742 83.5316 134.39 83.329C134.038 83.1156 133.617 83.009 133.126 83.009H129.99V81.633H132.838C133.691 81.633 134.438 81.761 135.078 82.017C135.718 82.273 136.214 82.6676 136.566 83.201C136.918 83.7343 137.094 84.4223 137.094 85.265V85.521C137.094 86.3636 136.913 87.0516 136.55 87.585C136.198 88.1183 135.702 88.513 135.062 88.769C134.433 89.025 133.691 89.153 132.838 89.153H129.99Z" fill="#0F111A"/>
</svg>
