<svg width="330" height="207" viewBox="0 0 330 207" fill="none" xmlns="http://www.w3.org/2000/svg">
<rect width="330" height="205.031" transform="translate(0 0.984863)" fill="white"/>
<circle cx="165" cy="73.0307" r="24.0458" fill="#FF0420"/>
<path d="M165.909 79.7647C165.787 79.7647 165.69 79.722 165.617 79.6367C165.544 79.5515 165.519 79.4418 165.544 79.3078L168.065 67.4292C168.09 67.2952 168.157 67.1855 168.267 67.1002C168.376 67.0149 168.492 66.9723 168.614 66.9723H173.475C174.218 66.9723 174.888 67.0576 175.485 67.2281C176.094 67.3987 176.6 67.6607 177.002 68.014C177.404 68.3673 177.684 68.812 177.843 69.348C178.001 69.8719 178.007 70.4872 177.861 71.1938C177.556 72.5949 176.935 73.6304 175.997 74.3005C175.071 74.9706 173.822 75.3056 172.25 75.3056H169.783L168.943 79.3078C168.918 79.4418 168.851 79.5515 168.742 79.6367C168.644 79.722 168.528 79.7647 168.394 79.7647H165.909ZM170.258 72.7837H172.36C172.86 72.7837 173.304 72.6497 173.694 72.3816C174.096 72.1136 174.358 71.7055 174.48 71.1572C174.541 70.8405 174.553 70.5603 174.516 70.3166C174.48 70.0729 174.352 69.878 174.133 69.7318C173.926 69.5856 173.603 69.5125 173.164 69.5125H170.971L170.258 72.7837Z" fill="white"/>
<path d="M158.089 79.9474C157.321 79.9474 156.609 79.8439 155.951 79.6367C155.293 79.4296 154.739 79.119 154.288 78.7047C153.837 78.2905 153.514 77.7727 153.319 77.1514C153.137 76.53 153.112 75.8051 153.246 74.9767C153.344 74.4528 153.447 73.9289 153.557 73.405C153.679 72.8812 153.801 72.3512 153.922 71.8151C154.324 70.1704 155.049 68.9216 156.097 68.0688C157.145 67.216 158.558 66.7896 160.337 66.7896C161.104 66.7896 161.811 66.8992 162.457 67.1185C163.115 67.3256 163.669 67.6424 164.12 68.0688C164.583 68.4952 164.906 69.0191 165.088 69.6404C165.283 70.2618 165.308 70.9867 165.161 71.8151C165.076 72.3512 164.973 72.8812 164.851 73.405C164.741 73.9289 164.625 74.4528 164.503 74.9767C164.089 76.6458 163.358 77.8945 162.31 78.723C161.263 79.5393 159.856 79.9474 158.089 79.9474ZM158.327 77.3158C158.984 77.3158 159.563 77.1209 160.063 76.731C160.562 76.3412 160.916 75.7198 161.123 74.867C161.257 74.331 161.372 73.8254 161.47 73.3502C161.579 72.8751 161.677 72.3816 161.762 71.8699C161.921 71.0171 161.848 70.3958 161.543 70.0059C161.238 69.6161 160.757 69.4211 160.099 69.4211C159.441 69.4211 158.863 69.6161 158.363 70.0059C157.876 70.3958 157.529 71.0171 157.321 71.8699C157.187 72.3816 157.066 72.8751 156.956 73.3502C156.859 73.8254 156.761 74.331 156.664 74.867C156.517 75.7198 156.59 76.3412 156.883 76.731C157.175 77.1209 157.657 77.3158 158.327 77.3158Z" fill="white"/>
<path d="M257.616 128.683C257.395 128.683 257.217 128.605 257.084 128.45C256.951 128.295 256.907 128.095 256.951 127.851L261.54 106.24C261.584 105.996 261.695 105.797 261.872 105.641C262.072 105.486 262.293 105.409 262.537 105.409H266.061C266.416 105.409 266.66 105.486 266.793 105.641C266.948 105.797 267.037 105.93 267.059 106.04L272.478 118.908L275.171 106.24C275.216 105.996 275.338 105.797 275.537 105.641C275.737 105.486 275.947 105.409 276.169 105.409H280.159C280.403 105.409 280.58 105.486 280.691 105.641C280.824 105.797 280.868 105.996 280.824 106.24L276.235 127.851C276.191 128.073 276.069 128.273 275.87 128.45C275.692 128.605 275.482 128.683 275.238 128.683H271.714C271.359 128.683 271.115 128.605 270.982 128.45C270.849 128.273 270.76 128.14 270.716 128.051L265.23 115.649L262.604 127.851C262.559 128.095 262.437 128.295 262.238 128.45C262.06 128.605 261.85 128.683 261.606 128.683H257.616Z" fill="#FF0420"/>
<path d="M245.506 128.683C245.263 128.683 245.074 128.605 244.941 128.45C244.808 128.295 244.764 128.095 244.808 127.851L249.43 106.24C249.474 105.996 249.596 105.797 249.796 105.641C249.995 105.486 250.206 105.409 250.427 105.409H254.916C255.137 105.409 255.315 105.486 255.448 105.641C255.581 105.797 255.625 105.996 255.581 106.24L250.959 127.851C250.915 128.095 250.793 128.295 250.594 128.45C250.416 128.605 250.217 128.683 249.995 128.683H245.506Z" fill="#FF0420"/>
<path d="M218.152 128.683C217.886 128.683 217.698 128.572 217.587 128.35C217.476 128.128 217.487 127.907 217.62 127.685L229.955 106.34C230.088 106.096 230.277 105.885 230.521 105.708C230.764 105.508 231.075 105.409 231.451 105.409H236.572C236.949 105.409 237.215 105.508 237.37 105.708C237.547 105.885 237.647 106.096 237.669 106.34L240.927 127.685C240.994 127.995 240.938 128.239 240.761 128.417C240.584 128.594 240.384 128.683 240.163 128.683H236.14C235.807 128.683 235.563 128.605 235.408 128.45C235.275 128.295 235.186 128.117 235.142 127.918L234.577 124.593H225.699L223.705 127.984C223.594 128.14 223.439 128.295 223.239 128.45C223.062 128.605 222.807 128.683 222.474 128.683H218.152ZM228.06 119.805H234.244L233.014 111.028L228.06 119.805Z" fill="#FF0420"/>
<path d="M194.143 128.683C193.921 128.683 193.744 128.605 193.611 128.45C193.478 128.295 193.433 128.095 193.478 127.851L198.066 106.24C198.11 105.996 198.232 105.797 198.432 105.641C198.631 105.486 198.842 105.409 199.064 105.409H203.353C203.596 105.409 203.785 105.486 203.918 105.641C204.051 105.797 204.095 105.996 204.051 106.24L202.322 114.253H210.534L212.23 106.24C212.274 105.996 212.385 105.797 212.562 105.641C212.762 105.486 212.984 105.409 213.227 105.409H217.516C217.76 105.409 217.949 105.486 218.082 105.641C218.215 105.797 218.259 105.996 218.215 106.24L213.593 127.851C213.549 128.095 213.427 128.295 213.227 128.45C213.05 128.605 212.839 128.683 212.596 128.683H208.307C208.063 128.683 207.874 128.605 207.741 128.45C207.631 128.295 207.597 128.095 207.642 127.851L209.404 119.573H201.225L199.429 127.851C199.385 128.095 199.263 128.295 199.064 128.45C198.886 128.605 198.676 128.683 198.432 128.683H194.143Z" fill="#FF0420"/>
<path d="M178.643 129.015C177.136 129.015 175.773 128.827 174.554 128.45C173.357 128.073 172.359 127.508 171.561 126.754C170.763 125.978 170.209 125.036 169.899 123.928C169.589 122.798 169.555 121.49 169.799 120.005C169.954 119.096 170.143 118.121 170.364 117.079C170.608 116.037 170.841 115.04 171.063 114.087C171.55 112.158 172.304 110.529 173.323 109.199C174.343 107.847 175.629 106.827 177.18 106.14C178.754 105.431 180.605 105.076 182.733 105.076C184.151 105.076 185.47 105.253 186.689 105.608C187.908 105.963 188.939 106.495 189.781 107.204C190.646 107.891 191.267 108.734 191.643 109.731C192.042 110.706 192.12 111.826 191.876 113.089C191.832 113.289 191.732 113.455 191.577 113.588C191.444 113.721 191.278 113.787 191.078 113.787H186.556C186.268 113.787 186.047 113.732 185.891 113.621C185.758 113.488 185.67 113.255 185.625 112.923C185.648 111.77 185.348 110.972 184.728 110.529C184.107 110.086 183.287 109.864 182.267 109.864C181.048 109.864 179.995 110.208 179.109 110.895C178.222 111.56 177.59 112.679 177.214 114.253C176.748 116.07 176.349 117.932 176.017 119.839C175.728 121.412 175.861 122.543 176.416 123.23C176.97 123.895 177.856 124.227 179.075 124.227C180.095 124.227 181.015 124.006 181.835 123.562C182.655 123.119 183.331 122.321 183.863 121.168C184.041 120.836 184.218 120.614 184.395 120.503C184.573 120.37 184.805 120.304 185.093 120.304H189.615C189.815 120.304 189.97 120.37 190.081 120.503C190.192 120.636 190.225 120.803 190.18 121.002C189.87 122.243 189.382 123.363 188.717 124.36C188.075 125.336 187.255 126.178 186.257 126.887C185.282 127.574 184.162 128.106 182.899 128.483C181.636 128.838 180.217 129.015 178.643 129.015Z" fill="#FF0420"/>
<path d="M145.647 128.683C145.403 128.683 145.215 128.605 145.082 128.45C144.971 128.295 144.938 128.095 144.982 127.851L149.571 106.24C149.615 105.996 149.737 105.797 149.936 105.641C150.136 105.486 150.357 105.409 150.601 105.409H159.645C162.504 105.409 164.61 106.074 165.962 107.404C167.336 108.711 167.769 110.573 167.259 112.989C166.926 114.563 166.261 115.893 165.264 116.979C164.289 118.065 163.125 118.885 161.773 119.44L164.599 127.619C164.621 127.685 164.632 127.741 164.632 127.785C164.632 127.829 164.621 127.896 164.599 127.984C164.577 128.162 164.477 128.328 164.3 128.483C164.122 128.616 163.934 128.683 163.734 128.683H159.346C158.924 128.683 158.636 128.583 158.481 128.383C158.348 128.162 158.248 127.962 158.182 127.785L155.954 120.47H152.53L150.967 127.851C150.923 128.095 150.801 128.295 150.601 128.45C150.402 128.605 150.18 128.683 149.936 128.683H145.647ZM153.527 115.782H157.384C158.426 115.782 159.257 115.527 159.878 115.017C160.498 114.508 160.908 113.809 161.108 112.923C161.285 112.058 161.174 111.36 160.775 110.828C160.398 110.296 159.667 110.03 158.581 110.03H154.757L153.527 115.782Z" fill="#FF0420"/>
<path d="M122.649 128.683C122.428 128.683 122.25 128.605 122.117 128.45C121.984 128.295 121.94 128.095 121.984 127.851L126.573 106.24C126.617 105.996 126.739 105.797 126.938 105.641C127.138 105.486 127.348 105.409 127.57 105.409H143.097C143.341 105.409 143.518 105.486 143.629 105.641C143.762 105.797 143.806 105.996 143.762 106.24L143.13 109.365C143.064 109.609 142.931 109.809 142.731 109.964C142.554 110.119 142.344 110.196 142.1 110.196H131.493L130.529 114.685H140.371C140.615 114.685 140.803 114.774 140.936 114.951C141.069 115.106 141.113 115.306 141.069 115.549L140.437 118.442C140.393 118.664 140.271 118.863 140.072 119.041C139.894 119.196 139.684 119.273 139.44 119.273H129.565L128.601 123.895H139.44C139.684 123.895 139.861 123.972 139.972 124.128C140.105 124.283 140.149 124.482 140.105 124.726L139.44 127.851C139.396 128.095 139.274 128.295 139.074 128.45C138.897 128.605 138.686 128.683 138.442 128.683H122.649Z" fill="#FF0420"/>
<path d="M98.8507 128.683C98.629 128.683 98.4517 128.605 98.3187 128.45C98.1857 128.295 98.1414 128.095 98.1857 127.851L102.774 106.24C102.818 105.996 102.94 105.797 103.14 105.641C103.339 105.486 103.55 105.409 103.771 105.409H112.616C113.968 105.409 115.187 105.564 116.273 105.874C117.381 106.184 118.301 106.661 119.033 107.304C119.764 107.947 120.274 108.756 120.562 109.731C120.85 110.684 120.861 111.803 120.595 113.089C120.041 115.638 118.911 117.522 117.204 118.741C115.519 119.96 113.247 120.57 110.388 120.57H105.899L104.37 127.851C104.326 128.095 104.204 128.295 104.004 128.45C103.827 128.605 103.616 128.683 103.372 128.683H98.8507ZM106.764 115.982H110.587C111.496 115.982 112.305 115.738 113.015 115.25C113.746 114.763 114.223 114.02 114.444 113.023C114.555 112.446 114.577 111.936 114.511 111.493C114.444 111.05 114.211 110.695 113.813 110.429C113.436 110.163 112.848 110.03 112.05 110.03H108.061L106.764 115.982Z" fill="#FF0420"/>
<path d="M82.7381 129.015C81.3195 129.015 80.0118 128.838 78.8148 128.483C77.6179 128.106 76.6204 127.541 75.8225 126.787C75.0245 126.034 74.4814 125.081 74.1933 123.928C73.9051 122.775 73.9273 121.401 74.2598 119.805L77.1191 106.24C77.1635 105.996 77.2854 105.797 77.4849 105.641C77.6844 105.486 77.906 105.409 78.1499 105.409H82.4389C82.6827 105.409 82.8601 105.486 82.9709 105.641C83.1039 105.797 83.1482 105.996 83.1039 106.24L80.2113 119.772C79.9231 121.213 80.0007 122.299 80.444 123.03C80.9095 123.74 81.8183 124.094 83.1704 124.094C84.5003 124.094 85.5864 123.74 86.4287 123.03C87.271 122.299 87.8473 121.213 88.1577 119.772L91.0503 106.24C91.0946 105.996 91.2165 105.797 91.416 105.641C91.6155 105.486 91.8261 105.409 92.0477 105.409H96.3368C96.5806 105.409 96.7579 105.486 96.8688 105.641C97.0018 105.797 97.0461 105.996 97.0018 106.24L94.1424 119.805C93.4553 122.975 92.1918 125.302 90.3521 126.787C88.5345 128.273 85.9965 129.015 82.7381 129.015Z" fill="#FF0420"/>
<path d="M58.3301 129.015C56.1135 129.015 54.2959 128.705 52.8773 128.084C51.4809 127.464 50.4723 126.643 49.8517 125.624C49.2532 124.582 49.0427 123.485 49.22 122.332C49.2643 122.155 49.353 122 49.486 121.867C49.6411 121.712 49.8185 121.634 50.0179 121.634H54.2738C54.5841 121.634 54.8057 121.689 54.9387 121.8C55.0717 121.911 55.2047 122.055 55.3377 122.232C55.4264 122.565 55.6037 122.886 55.8697 123.197C56.1357 123.507 56.5014 123.762 56.9669 123.961C57.4545 124.139 58.053 124.227 58.7623 124.227C60.0479 124.227 61.0786 124.028 61.8544 123.629C62.6302 123.23 63.0846 122.687 63.2176 122C63.3506 121.512 63.2619 121.113 62.9516 120.803C62.6635 120.47 62.1426 120.182 61.3889 119.938C60.6575 119.672 59.6711 119.406 58.4298 119.14C56.8117 118.786 55.4818 118.298 54.44 117.677C53.3982 117.035 52.6667 116.226 52.2456 115.25C51.8466 114.253 51.7912 113.067 52.0793 111.693C52.5227 109.653 53.6199 108.046 55.371 106.872C57.122 105.675 59.394 105.076 62.1869 105.076C63.6277 105.076 64.9022 105.276 66.0105 105.675C67.1409 106.074 68.083 106.606 68.8366 107.271C69.5902 107.936 70.1333 108.645 70.4658 109.398C70.7983 110.13 70.9091 110.85 70.7983 111.56C70.7761 111.737 70.6874 111.903 70.5323 112.058C70.3771 112.191 70.1998 112.258 70.0003 112.258H65.545C65.3233 112.258 65.1239 112.214 64.9465 112.125C64.7914 112.036 64.6584 111.892 64.5475 111.693C64.5475 111.205 64.2926 110.784 63.7828 110.429C63.273 110.052 62.597 109.864 61.7547 109.864C60.8015 109.864 60.0036 110.041 59.3608 110.396C58.718 110.728 58.319 111.249 58.1638 111.959C58.053 112.402 58.1084 112.79 58.3301 113.122C58.5739 113.455 59.0172 113.743 59.66 113.987C60.325 114.231 61.2338 114.486 62.3864 114.751C64.337 115.128 65.8664 115.638 66.9747 116.281C68.083 116.902 68.8255 117.688 69.2023 118.642C69.6013 119.595 69.6567 120.758 69.3686 122.133C68.8809 124.394 67.6951 126.111 65.811 127.286C63.9491 128.439 61.4554 129.015 58.3301 129.015Z" fill="#FF0420"/>
<path d="M82.2004 155.016H77.1681V139.471H82.3598C83.8829 139.471 85.1909 139.782 86.2839 140.404C87.3769 141.022 88.2144 141.91 88.7963 143.069C89.3833 144.222 89.6768 145.606 89.6768 147.22C89.6768 148.84 89.3807 150.231 88.7887 151.395C88.2017 152.559 87.3516 153.455 86.2384 154.082C85.1252 154.704 83.7792 155.016 82.2004 155.016ZM79.5135 152.966H82.0714C83.2554 152.966 84.2396 152.744 85.024 152.298C85.8083 151.848 86.3953 151.198 86.7849 150.348C87.1745 149.492 87.3693 148.45 87.3693 147.22C87.3693 146.001 87.1745 144.966 86.7849 144.116C86.4003 143.266 85.826 142.621 85.0619 142.181C84.2978 141.74 83.349 141.52 82.2156 141.52H79.5135V152.966ZM99.433 155.016V139.471H109.179V141.49H101.778V146.226H108.67V148.238H101.778V152.997H109.27V155.016H99.433ZM120.51 139.471L124.836 152.131H125.011L129.337 139.471H131.873L126.279 155.016H123.569L117.975 139.471H120.51ZM140.957 155.016V139.471H150.703V141.49H143.302V146.226H150.194V148.238H143.302V152.997H150.794V155.016H140.957ZM160.675 155.016V139.471H163.021V152.997H170.065V155.016H160.675ZM192.477 147.243C192.477 148.903 192.174 150.33 191.567 151.524C190.959 152.713 190.127 153.629 189.069 154.272C188.017 154.909 186.82 155.228 185.479 155.228C184.133 155.228 182.932 154.909 181.874 154.272C180.821 153.629 179.992 152.711 179.384 151.517C178.777 150.322 178.474 148.898 178.474 147.243C178.474 145.584 178.777 144.159 179.384 142.97C179.992 141.776 180.821 140.86 181.874 140.222C182.932 139.58 184.133 139.258 185.479 139.258C186.82 139.258 188.017 139.58 189.069 140.222C190.127 140.86 190.959 141.776 191.567 142.97C192.174 144.159 192.477 145.584 192.477 147.243ZM190.155 147.243C190.155 145.978 189.95 144.913 189.54 144.048C189.135 143.177 188.579 142.52 187.87 142.074C187.167 141.624 186.37 141.399 185.479 141.399C184.584 141.399 183.784 141.624 183.081 142.074C182.377 142.52 181.821 143.177 181.411 144.048C181.006 144.913 180.804 145.978 180.804 147.243C180.804 148.508 181.006 149.576 181.411 150.446C181.821 151.312 182.377 151.969 183.081 152.42C183.784 152.865 184.584 153.088 185.479 153.088C186.37 153.088 187.167 152.865 187.87 152.42C188.579 151.969 189.135 151.312 189.54 150.446C189.95 149.576 190.155 148.508 190.155 147.243ZM202.241 155.016V139.471H207.782C208.992 139.471 209.993 139.691 210.788 140.131C211.582 140.571 212.177 141.174 212.572 141.938C212.966 142.697 213.164 143.552 213.164 144.503C213.164 145.46 212.964 146.32 212.564 147.084C212.169 147.843 211.572 148.445 210.773 148.89C209.978 149.331 208.979 149.551 207.775 149.551H203.964V147.562H207.562C208.326 147.562 208.946 147.43 209.422 147.167C209.897 146.899 210.246 146.535 210.469 146.074C210.692 145.614 210.803 145.09 210.803 144.503C210.803 143.916 210.692 143.395 210.469 142.94C210.246 142.484 209.895 142.127 209.414 141.869C208.938 141.611 208.311 141.482 207.532 141.482H204.587V155.016H202.241ZM222.753 155.016V139.471H232.499V141.49H225.098V146.226H231.99V148.238H225.098V152.997H232.59V155.016H222.753ZM242.471 155.016V139.471H248.012C249.216 139.471 250.216 139.678 251.01 140.093C251.81 140.508 252.407 141.083 252.802 141.816C253.196 142.545 253.394 143.387 253.394 144.344C253.394 145.295 253.194 146.133 252.794 146.856C252.399 147.575 251.802 148.134 251.003 148.534C250.208 148.933 249.209 149.133 248.005 149.133H243.807V147.114H247.792C248.551 147.114 249.168 147.005 249.644 146.788C250.125 146.57 250.476 146.254 250.699 145.839C250.922 145.424 251.033 144.926 251.033 144.344C251.033 143.757 250.919 143.248 250.691 142.818C250.469 142.388 250.117 142.059 249.636 141.831C249.161 141.599 248.536 141.482 247.762 141.482H244.817V155.016H242.471ZM250.145 148.002L253.986 155.016H251.314L247.549 148.002H250.145Z" fill="#0F111A"/>
</svg>
