<?xml version="1.0" encoding="utf-8"?>
<!-- Generator: Adobe Illustrator 27.5.0, SVG Export Plug-In . SVG Version: 6.00 Build 0)  -->
<svg version="1.1" id="Layer_1" xmlns="http://www.w3.org/2000/svg" xmlns:xlink="http://www.w3.org/1999/xlink" x="0px" y="0px"
	 viewBox="0 0 160 97" style="enable-background:new 0 0 160 97;" xml:space="preserve">
<style type="text/css">
	.st0{fill:#FF0420;}
	.st1{fill:#FFFFFF;}
</style>
<circle class="st0" cx="80" cy="18" r="18"/>
<path class="st1" d="M80.7,23c-0.1,0-0.2,0-0.2-0.1c-0.1-0.1-0.1-0.1-0.1-0.2l1.9-8.9c0-0.1,0.1-0.2,0.2-0.2
	c0.1-0.1,0.2-0.1,0.3-0.1h3.6c0.6,0,1.1,0.1,1.5,0.2c0.5,0.1,0.8,0.3,1.1,0.6c0.3,0.3,0.5,0.6,0.6,1c0.1,0.4,0.1,0.9,0,1.4
	c-0.2,1-0.7,1.8-1.4,2.3c-0.7,0.5-1.6,0.8-2.8,0.8h-1.8l-0.6,3c0,0.1-0.1,0.2-0.2,0.2C82.7,23,82.6,23,82.5,23H80.7z M83.9,17.8h1.6
	c0.4,0,0.7-0.1,1-0.3c0.3-0.2,0.5-0.5,0.6-0.9c0-0.2,0.1-0.4,0-0.6c0-0.2-0.1-0.3-0.3-0.4c-0.2-0.1-0.4-0.2-0.7-0.2h-1.6L83.9,17.8z
	"/>
<path class="st1" d="M74.8,23.2c-0.6,0-1.1-0.1-1.6-0.2c-0.5-0.2-0.9-0.4-1.2-0.7c-0.3-0.3-0.6-0.7-0.7-1.2c-0.1-0.5-0.2-1-0.1-1.6
	c0.1-0.4,0.2-0.8,0.2-1.2c0.1-0.4,0.2-0.8,0.3-1.2c0.3-1.2,0.8-2.2,1.6-2.8c0.8-0.6,1.8-1,3.2-1c0.6,0,1.1,0.1,1.6,0.2
	c0.5,0.2,0.9,0.4,1.2,0.7c0.3,0.3,0.6,0.7,0.7,1.2c0.1,0.5,0.2,1,0.1,1.6c-0.1,0.4-0.1,0.8-0.2,1.2c-0.1,0.4-0.2,0.8-0.3,1.2
	c-0.3,1.2-0.9,2.2-1.6,2.8C77.2,22.9,76.1,23.2,74.8,23.2z M75,21.2c0.5,0,0.9-0.1,1.3-0.4c0.4-0.3,0.6-0.8,0.8-1.4
	c0.1-0.4,0.2-0.8,0.3-1.1c0.1-0.4,0.2-0.7,0.2-1.1c0.1-0.6,0.1-1.1-0.2-1.4c-0.2-0.3-0.6-0.4-1.1-0.4c-0.5,0-0.9,0.1-1.3,0.4
	c-0.4,0.3-0.6,0.8-0.8,1.4c-0.1,0.4-0.2,0.8-0.3,1.1c-0.1,0.4-0.1,0.7-0.2,1.1c-0.1,0.6-0.1,1.1,0.2,1.4
	C74.1,21.1,74.5,21.2,75,21.2z"/>
<path class="st1" d="M143.7,66.5V50.4h3.3v6.9h-0.3c0-1.6,0.2-3,0.7-4.1c0.4-1.1,1.1-1.9,1.9-2.5c0.9-0.6,1.9-0.8,3.2-0.8h0.2
	c1.9,0,3.4,0.6,4.3,1.9c1,1.2,1.5,3.1,1.5,5.5v9.2h-4.1v-9.6c0-1-0.3-1.8-0.9-2.4c-0.6-0.6-1.3-0.9-2.3-0.9c-1,0-1.8,0.3-2.5,0.9
	c-0.6,0.6-0.9,1.4-0.9,2.5v9.4H143.7z"/>
<path class="st1" d="M136.4,66.5V50.4h4.1v16.1H136.4z M134.1,53.5v-3.1h6.4v3.1H134.1z M137.9,48.5c-0.8,0-1.4-0.2-1.8-0.6
	c-0.4-0.4-0.6-1-0.6-1.6s0.2-1.2,0.6-1.6c0.4-0.4,1-0.6,1.8-0.6c0.8,0,1.4,0.2,1.8,0.6c0.4,0.4,0.6,0.9,0.6,1.6s-0.2,1.2-0.6,1.6
	C139.3,48.3,138.7,48.5,137.9,48.5z"/>
<path class="st1" d="M129.4,66.5v-4.8h-0.7v-5.3c0-0.9-0.2-1.6-0.7-2.1c-0.5-0.5-1.2-0.7-2.1-0.7c-0.5,0-1.1,0-1.8,0
	c-0.7,0-1.4,0-2.1,0.1c-0.7,0-1.3,0-1.9,0.1v-3.5c0.5,0,1-0.1,1.5-0.1c0.6,0,1.2-0.1,1.7-0.1c0.6,0,1.2,0,1.7,0c1.7,0,3,0.2,4.1,0.7
	c1.1,0.4,1.9,1.1,2.5,2c0.6,0.9,0.9,2.1,0.9,3.6v10H129.4z M124.2,66.9c-1.2,0-2.2-0.2-3.1-0.6c-0.9-0.4-1.5-1-2-1.8
	c-0.5-0.8-0.7-1.7-0.7-2.8c0-1.2,0.3-2.2,0.9-2.9c0.6-0.7,1.4-1.3,2.5-1.7c1.1-0.4,2.3-0.6,3.7-0.6h3.7V59h-3.8
	c-0.9,0-1.7,0.2-2.2,0.7c-0.5,0.5-0.7,1-0.7,1.8s0.2,1.3,0.7,1.8c0.5,0.5,1.2,0.7,2.2,0.7c0.6,0,1.1-0.1,1.6-0.3
	c0.5-0.2,0.9-0.6,1.2-1.1c0.3-0.5,0.5-1.2,0.6-2.1l1,1.2c-0.1,1.1-0.4,2.1-0.8,2.8c-0.4,0.8-1,1.4-1.8,1.8
	C126.3,66.7,125.4,66.9,124.2,66.9z"/>
<path class="st1" d="M102,66.5V44.9h4.1v12.6h-0.7c0-1.6,0.2-3,0.6-4.1c0.4-1.1,1-2,1.8-2.6c0.8-0.6,1.9-0.9,3.1-0.9h0.2
	c1.8,0,3.2,0.6,4.2,1.9c0.9,1.3,1.4,3.1,1.4,5.5v9.2h-4.1v-9.6c0-1-0.3-1.8-0.9-2.4c-0.6-0.6-1.3-0.9-2.3-0.9c-1,0-1.8,0.3-2.5,1
	c-0.6,0.7-0.9,1.5-0.9,2.6v9.3H102z"/>
<path class="st1" d="M92.5,67c-1.4,0-2.6-0.2-3.6-0.7c-1-0.5-1.9-1.1-2.5-1.9c-0.7-0.8-1.2-1.7-1.5-2.7c-0.3-1-0.5-2-0.5-3v-0.6
	c0-1.1,0.2-2.1,0.5-3.1c0.4-1,0.9-1.9,1.6-2.7c0.7-0.8,1.5-1.4,2.5-1.9c1-0.5,2.2-0.7,3.6-0.7c1.4,0,2.7,0.3,3.8,0.8
	c1.1,0.5,2,1.3,2.6,2.2c0.7,1,1,2.1,1.1,3.4h-4c-0.1-0.8-0.5-1.5-1.1-2.1c-0.6-0.6-1.4-0.8-2.5-0.8c-0.9,0-1.7,0.2-2.3,0.7
	c-0.6,0.4-1,1-1.3,1.8c-0.3,0.7-0.4,1.6-0.4,2.6c0,0.9,0.1,1.8,0.4,2.6c0.3,0.8,0.7,1.4,1.3,1.8c0.6,0.4,1.4,0.7,2.3,0.7
	c0.7,0,1.3-0.1,1.8-0.4c0.5-0.3,0.9-0.6,1.2-1.1c0.3-0.5,0.5-1,0.6-1.5h4c-0.1,1.3-0.5,2.4-1.2,3.4c-0.7,1-1.6,1.7-2.7,2.3
	C95.2,66.7,93.9,67,92.5,67z"/>
<path class="st1" d="M74.6,66.5V50.4h3.3v6.8h-0.1c0-2.3,0.5-4.1,1.5-5.2c1-1.2,2.4-1.8,4.3-1.8h0.6v3.6h-1.1
	c-1.4,0-2.5,0.4-3.2,1.1c-0.7,0.7-1.1,1.8-1.1,3.2v8.4H74.6z"/>
<path class="st1" d="M65,67c-1.4,0-2.6-0.2-3.6-0.7c-1-0.5-1.9-1.1-2.6-1.9c-0.7-0.8-1.2-1.7-1.5-2.7c-0.3-1-0.5-2-0.5-3v-0.6
	c0-1.1,0.2-2.1,0.5-3.1c0.4-1,0.9-1.9,1.5-2.7c0.7-0.8,1.5-1.4,2.5-1.9c1-0.5,2.2-0.7,3.5-0.7c1.7,0,3.2,0.4,4.3,1.2
	c1.2,0.7,2.1,1.7,2.7,3c0.6,1.2,0.9,2.5,0.9,4v1.5H58.5v-2.5h11.7l-1.3,1.2c0-1-0.1-1.9-0.4-2.6c-0.3-0.7-0.7-1.3-1.4-1.7
	c-0.6-0.4-1.3-0.6-2.2-0.6c-0.9,0-1.7,0.2-2.3,0.6c-0.6,0.4-1.1,1-1.4,1.8c-0.3,0.8-0.5,1.7-0.5,2.8c0,1,0.2,1.9,0.5,2.7
	c0.3,0.8,0.8,1.4,1.4,1.8c0.7,0.4,1.5,0.7,2.5,0.7c1,0,1.8-0.2,2.5-0.6c0.6-0.4,1-0.9,1.2-1.5h3.8c-0.2,1.1-0.7,2.1-1.4,2.9
	s-1.5,1.5-2.6,1.9C67.5,66.8,66.3,67,65,67z"/>
<path class="st1" d="M38.6,72.4v-22h3.3v6.9l-0.5,0c0.1-1.6,0.4-3,1-4.1c0.6-1.1,1.4-1.9,2.4-2.5c1-0.6,2.1-0.8,3.4-0.8
	c1.1,0,2.2,0.2,3.1,0.6c0.9,0.4,1.7,1,2.4,1.7c0.7,0.7,1.2,1.6,1.5,2.6c0.4,1,0.5,2.1,0.5,3.2v0.6c0,1.2-0.2,2.2-0.5,3.3
	c-0.3,1-0.8,1.9-1.5,2.6c-0.7,0.7-1.4,1.3-2.4,1.8c-0.9,0.4-2,0.6-3.1,0.6c-1.2,0-2.3-0.2-3.3-0.7c-1-0.5-1.8-1.3-2.4-2.3
	c-0.6-1.1-1-2.4-1-4.1l1.3,2v10.6H38.6z M47.1,63.5c0.9,0,1.7-0.2,2.3-0.7c0.7-0.4,1.2-1,1.6-1.8c0.4-0.8,0.6-1.7,0.6-2.7
	c0-1-0.2-1.9-0.6-2.7c-0.4-0.7-0.9-1.3-1.6-1.7c-0.7-0.4-1.4-0.7-2.3-0.7c-0.8,0-1.6,0.2-2.2,0.5c-0.7,0.4-1.2,0.9-1.7,1.6
	c-0.4,0.7-0.6,1.5-0.6,2.5v1.2c0,0.9,0.2,1.7,0.7,2.4c0.4,0.7,1,1.2,1.7,1.5C45.6,63.4,46.3,63.5,47.1,63.5z"/>
<path class="st1" d="M26.6,67c-1.9,0-3.3-0.6-4.3-1.8c-1-1.2-1.5-3-1.5-5.4v-9.3h4.1V60c0,1,0.3,1.8,0.8,2.4
	c0.6,0.6,1.3,0.9,2.2,0.9c0.9,0,1.7-0.3,2.3-0.9c0.6-0.6,0.9-1.4,0.9-2.5v-9.5h4.1v16.1h-3.3v-6.8h0.3c0,1.6-0.2,3-0.6,4.1
	c-0.4,1.1-1,1.9-1.9,2.5C29.1,66.7,28,67,26.8,67H26.6z"/>
<path class="st1" d="M10.4,67c-1.9,0-3.5-0.3-4.9-0.9c-1.3-0.6-2.3-1.4-3-2.5c-0.7-1.1-1-2.3-1-3.7h4.1c0,0.6,0.2,1.1,0.5,1.7
	c0.3,0.5,0.8,1,1.5,1.3c0.7,0.3,1.6,0.5,2.8,0.5c1,0,1.9-0.1,2.6-0.4c0.7-0.3,1.2-0.7,1.5-1.2c0.3-0.5,0.5-1,0.5-1.7
	c0-0.8-0.3-1.4-1-1.8c-0.7-0.5-1.7-0.8-3-0.9l-1.9-0.1c-2.1-0.2-3.7-0.8-5-1.9c-1.2-1.1-1.8-2.6-1.8-4.4c0-1.4,0.3-2.6,1-3.6
	c0.7-1,1.6-1.8,2.7-2.3c1.2-0.6,2.6-0.8,4.1-0.8c1.6,0,3,0.3,4.2,0.9c1.2,0.6,2.1,1.4,2.8,2.4c0.7,1,1,2.2,1,3.6H14
	c0-0.6-0.1-1.1-0.4-1.6c-0.3-0.5-0.7-0.9-1.3-1.2c-0.6-0.3-1.3-0.5-2.1-0.5c-0.8,0-1.5,0.1-2.1,0.4c-0.6,0.3-1,0.7-1.2,1.1
	c-0.3,0.5-0.4,1-0.4,1.5c0,0.7,0.2,1.3,0.7,1.8c0.5,0.5,1.3,0.8,2.3,0.9l1.9,0.2c1.5,0.1,2.9,0.4,4.1,1c1.2,0.5,2.1,1.3,2.7,2.2
	c0.7,0.9,1,2,1,3.3c0,1.4-0.4,2.6-1.1,3.6c-0.7,1-1.7,1.8-3,2.4C13.7,66.7,12.2,67,10.4,67z"/>
<path class="st1" d="M24.4,93.4V92h2.9c0.7,0,1.3-0.1,1.9-0.3c0.6-0.2,1-0.6,1.4-1c0.4-0.4,0.7-0.9,0.9-1.4c0.2-0.5,0.3-1.1,0.3-1.8
	c0-0.7-0.1-1.3-0.3-1.8c-0.2-0.5-0.5-1-0.9-1.4c-0.4-0.4-0.9-0.7-1.4-0.9c-0.5-0.2-1.2-0.3-1.9-0.3h-2.9v-1.4h2.8
	c1.1,0,2,0.2,2.8,0.5c0.8,0.3,1.4,0.8,1.9,1.3c0.5,0.5,0.9,1.2,1.2,1.8c0.3,0.7,0.4,1.4,0.4,2.1v0.4c0,0.7-0.1,1.4-0.4,2
	c-0.3,0.7-0.6,1.3-1.2,1.9c-0.5,0.6-1.2,1-1.9,1.3c-0.8,0.3-1.7,0.5-2.8,0.5H24.4z M23.2,93.4V81.6h1.6v11.8H23.2z M38.4,93.4V81.7
	H40v11.7H38.4z M39.6,93.4V92h5.7v1.4H39.6z M39.6,88.1v-1.4h5.2v1.4H39.6z M39.6,83.1v-1.4h5.5v1.4H39.6z M53.2,93.4l-4-11.7h1.6
	l3.6,10.7L53.7,92h1.9l-0.8,0.4l3.3-10.7h1.6l-3.8,11.7H53.2z M64.4,93.4V81.7H66v11.7H64.4z M65.7,93.4V92h5.7v1.4H65.7z
	 M65.7,88.1v-1.4h5.2v1.4H65.7z M65.7,83.1v-1.4h5.5v1.4H65.7z M76.6,93.4V81.7h1.6v11.7H76.6z M77.8,93.4V92h5.3v1.4H77.8z
	 M92.9,93.7c-1,0-1.9-0.2-2.7-0.6c-0.8-0.4-1.4-0.9-1.9-1.5c-0.5-0.6-0.9-1.3-1.1-2c-0.2-0.7-0.4-1.4-0.4-2v-0.4
	c0-0.7,0.1-1.4,0.4-2.1c0.2-0.7,0.6-1.3,1.1-1.9c0.5-0.6,1.1-1.1,1.9-1.4c0.8-0.4,1.6-0.5,2.7-0.5c1,0,1.9,0.2,2.7,0.5
	c0.8,0.4,1.4,0.8,1.9,1.4c0.5,0.6,0.9,1.2,1.1,1.9c0.2,0.7,0.4,1.4,0.4,2.1v0.4c0,0.6-0.1,1.3-0.4,2c-0.2,0.7-0.6,1.3-1.1,2
	c-0.5,0.6-1.1,1.1-1.9,1.5C94.8,93.5,93.9,93.7,92.9,93.7z M92.9,92.2c0.7,0,1.3-0.1,1.8-0.4c0.6-0.3,1-0.6,1.4-1
	c0.4-0.4,0.7-0.9,0.9-1.5c0.2-0.6,0.3-1.2,0.3-1.8c0-0.7-0.1-1.3-0.3-1.8c-0.2-0.6-0.5-1.1-0.9-1.5c-0.4-0.4-0.9-0.8-1.4-1
	c-0.5-0.2-1.2-0.4-1.8-0.4c-0.7,0-1.3,0.1-1.9,0.4c-0.5,0.2-1,0.6-1.4,1c-0.4,0.4-0.7,0.9-0.9,1.5c-0.2,0.6-0.3,1.2-0.3,1.8
	c0,0.6,0.1,1.2,0.3,1.8c0.2,0.6,0.5,1.1,0.9,1.5c0.4,0.4,0.8,0.8,1.4,1C91.6,92.1,92.2,92.2,92.9,92.2z M105.3,89.3v-1.4h2.6
	c0.6,0,1-0.1,1.4-0.3c0.4-0.2,0.6-0.5,0.8-0.9c0.2-0.4,0.3-0.8,0.3-1.2c0-0.5-0.1-0.9-0.3-1.3c-0.2-0.4-0.5-0.7-0.8-0.9
	c-0.4-0.2-0.8-0.3-1.4-0.3h-2.6v-1.4h2.3c1,0,1.8,0.2,2.4,0.5c0.7,0.3,1.1,0.7,1.5,1.3c0.3,0.6,0.5,1.2,0.5,2v0.3
	c0,0.7-0.2,1.4-0.5,2c-0.3,0.6-0.8,1-1.5,1.3c-0.6,0.3-1.4,0.4-2.4,0.4H105.3z M104.1,93.4V81.6h1.6v11.7H104.1z M116.9,93.4V81.7
	h1.6v11.7H116.9z M118.1,93.4V92h5.7v1.4H118.1z M118.1,88.1v-1.4h5.2v1.4H118.1z M118.1,83.1v-1.4h5.5v1.4H118.1z M129,93.4V81.6
	h1.6v11.7H129z M136.2,93.4l-3.9-5.2h1.8l3.9,5.2H136.2z M130,89.2v-1.4h3.1c0.5,0,0.9-0.1,1.3-0.3c0.4-0.2,0.6-0.5,0.8-0.8
	c0.2-0.4,0.3-0.8,0.3-1.2c0-0.5-0.1-0.9-0.3-1.2c-0.2-0.4-0.5-0.6-0.8-0.8c-0.4-0.2-0.8-0.3-1.3-0.3H130v-1.4h2.8
	c0.9,0,1.6,0.1,2.2,0.4c0.6,0.3,1.1,0.7,1.5,1.2c0.4,0.5,0.5,1.2,0.5,2.1v0.3c0,0.8-0.2,1.5-0.5,2.1c-0.4,0.5-0.8,0.9-1.5,1.2
	c-0.6,0.3-1.4,0.4-2.2,0.4H130z"/>
</svg>
